<?xml version="1.0" encoding="utf-8"?>
<!-- Generator: Adobe Illustrator 21.0.2, SVG Export Plug-In . SVG Version: 6.00 Build 0)  -->
<svg version="1.1" id="Layer_1" xmlns="http://www.w3.org/2000/svg" xmlns:xlink="http://www.w3.org/1999/xlink" x="0px" y="0px"
	 viewBox="0 0 242 157.5" style="enable-background:new 0 0 242 157.5;" xml:space="preserve">
<style type="text/css">
	.st0{fill:#363636;}
</style>
<g>
	<path class="st0" d="M54.9,154.7c-29.9,0-54.3-24.4-54.3-54.3S25,46.1,54.9,46.1s54.3,24.4,54.3,54.3S84.8,154.7,54.9,154.7z
		 M54.9,55.5C30.2,55.5,10,75.6,10,100.4s20.1,44.9,44.9,44.9c24.7,0,44.9-20.1,44.9-44.9S79.6,55.5,54.9,55.5z"/>
	<path class="st0" d="M187.1,154.7c-29.9,0-54.3-24.4-54.3-54.3s24.4-54.3,54.3-54.3s54.3,24.4,54.3,54.3S217,154.7,187.1,154.7z
		 M187.1,55.5c-24.7,0-44.9,20.1-44.9,44.9s20.1,44.9,44.9,44.9s44.9-20.1,44.9-44.9S211.8,55.5,187.1,55.5z"/>
	<path class="st0" d="M54.9,136.9c-20.1,0-36.5-16.4-36.5-36.5s16.4-36.5,36.5-36.5s36.5,16.4,36.5,36.5S75,136.9,54.9,136.9z
		 M54.9,67c-18.4,0-33.4,15-33.4,33.4s15,33.4,33.4,33.4c18.4,0,33.4-15,33.4-33.4S73.3,67,54.9,67z"/>
	<path class="st0" d="M187.1,136.9c-20.1,0-36.5-16.4-36.5-36.5s16.4-36.5,36.5-36.5s36.5,16.4,36.5,36.5S207.2,136.9,187.1,136.9z
		 M187.1,67c-18.4,0-33.4,15-33.4,33.4s15,33.4,33.4,33.4s33.4-15,33.4-33.4S205.5,67,187.1,67z"/>
	<path class="st0" d="M142.2,121.5H99.8V83.1h42.3V121.5z M109.1,112.3h23.8V92.4h-23.8V112.3z"/>
	<polygon class="st0" points="133.5,90.4 130.4,33.7 111.4,33.7 108.5,84.7 99.1,84.2 102.5,24.2 139.4,24.2 142.9,89.9 	"/>
	<path class="st0" d="M14.4,80.9l-7.9-5.1l41.4-64.1l0.6-0.5c0.7-0.5,16.1-12.3,35.8-8c20.1,4.5,26.8,23.3,27,24.1l-8.9,3.1
		c-0.2-0.6-5.4-14.7-20.2-18c-13.4-3-24.7,4-27.4,5.8L14.4,80.9z"/>
	<path class="st0" d="M228,80.9l-40.5-62.6c-2.6-1.8-14-8.8-27.4-5.8c-15,3.3-20.1,17.8-20.2,18l-8.9-3.1c0.3-0.8,7-19.7,27-24.1
		c19.7-4.4,35.1,7.5,35.8,8l0.6,0.5l41.4,64.1L228,80.9z"/>
</g>
</svg>
