<?xml version="1.0" encoding="utf-8"?>
<!-- Generator: Adobe Illustrator 21.0.2, SVG Export Plug-In . SVG Version: 6.00 Build 0)  -->
<svg version="1.1" id="Layer_1" xmlns="http://www.w3.org/2000/svg" xmlns:xlink="http://www.w3.org/1999/xlink" x="0px" y="0px"
	 viewBox="0 0 300 300" style="enable-background:new 0 0 300 300;" xml:space="preserve">
<style type="text/css">
	.st0{fill:#363636;}
</style>
<g>
	<path class="st0" d="M72.3,201.9v-78.8h14.9v-10H6.8v99.1h80.3v-10.3H72.3z M45.5,201.9H29.1v-78.8h16.3V201.9z M67,201.9H50.7
		v-78.8H67V201.9z"/>
	<path class="st0" d="M90.1,87.8v124.4h119.1V87.8H90.1z M124.5,201.9H99.9v-88.9h24.6V201.9z M159.6,201.9H135v-88.9h24.6V201.9z
		 M197.5,201.9h-24.6v-88.9h24.6V201.9z"/>
	<path class="st0" d="M212.2,113.1v10h15.5v78.8h-15.5v10.3h80.9v-99.1H212.2z M250.8,202.1h-16.3v-78.8h16.3V202.1z M273.9,201.9
		h-16.3v-78.8h16.3V201.9z"/>
</g>
</svg>
