<?xml version="1.0" encoding="utf-8"?>
<!-- Generator: Adobe Illustrator 21.0.2, SVG Export Plug-In . SVG Version: 6.00 Build 0)  -->
<svg version="1.1" id="Layer_1" xmlns="http://www.w3.org/2000/svg" xmlns:xlink="http://www.w3.org/1999/xlink" x="0px" y="0px"
	 viewBox="0 0 300 132" style="enable-background:new 0 0 300 132;" xml:space="preserve">
<style type="text/css">
	.st0{fill:#FFFFFF;}
</style>
<g>
	<path class="st0" d="M70.5,119.7V39h15.3V28.7H3.4v101.5h82.2v-10.5H70.5L70.5,119.7z M43,119.7H26.2V39h16.7L43,119.7L43,119.7z
		 M65.1,119.7H48.4V39h16.7C65.1,39,65.1,119.7,65.1,119.7z"/>
	<path class="st0" d="M88.7,2.8v127.4h122V2.8H88.7z M123.9,119.7H98.7v-91h25.2C123.9,28.7,123.9,119.7,123.9,119.7z M159.9,119.7
		h-25.2v-91h25.2V119.7z M198.7,119.7h-25.2v-91h25.2V119.7z"/>
	<path class="st0" d="M213.8,28.7V39h15.9v80.7h-15.9v10.5h82.8V28.7H213.8z M253.3,119.9h-16.7V39.2h16.7V119.9z M276.9,119.7
		h-16.7V39h16.7V119.7z"/>
</g>
</svg>
