<?xml version="1.0" encoding="utf-8"?>
<!-- Generator: Adobe Illustrator 21.0.0, SVG Export Plug-In . SVG Version: 6.00 Build 0)  -->
<svg version="1.1" id="Layer_1" xmlns="http://www.w3.org/2000/svg" xmlns:xlink="http://www.w3.org/1999/xlink" x="0px" y="0px"
	 width="212.7px" height="300px" viewBox="0 0 212.7 300" style="enable-background:new 0 0 212.7 300;" xml:space="preserve">
<style type="text/css">
	.st0{fill:#363636;}
</style>
<g>
	<path class="st0" d="M48.9,261.3c37.1,0,74.3,0,111.4,0c9.7,0,9.7-15.1,0-15.1c-37.1,0-74.3,0-111.4,0
		C39.3,246.2,39.2,261.3,48.9,261.3L48.9,261.3z"/>
	<path class="st0" d="M62.6,297.2c27.9,0,55.8,0,83.7,0c9.7,0,9.7-15.1,0-15.1c-27.9,0-55.8,0-83.7,0
		C52.9,282.1,52.9,297.2,62.6,297.2L62.6,297.2z"/>
	<path class="st0" d="M153.8,196.3l-6.4-12.3c29.4-15.4,47.6-45.5,47.6-78.6c0-48.9-39.8-88.7-88.7-88.7s-88.7,39.8-88.7,88.7
		c0,30.2,15.1,58,40.5,74.4l1.4,0.9l-7.4,11.8l-1.6-1c-29.3-19-46.8-51.2-46.8-86.1c0-56.5,46-102.5,102.6-102.5
		c56.5,0,102.5,46,102.5,102.5C208.9,143.7,187.8,178.5,153.8,196.3z"/>
	<path class="st0" d="M67.9,217.1c-3.1-20.7-6.3-41.5-9.4-62.2c-1.7-11-18.4-6.3-16.8,4.6c3.1,20.7,6.3,41.5,9.4,62.2
		C52.8,232.7,69.5,228,67.9,217.1L67.9,217.1z"/>
	<path class="st0" d="M156.4,221.7c3.1-20.7,6.3-41.5,9.4-62.2c1.7-10.9-15.1-15.7-16.8-4.6c-3.1,20.7-6.3,41.5-9.4,62.2
		C138,228,154.7,232.7,156.4,221.7L156.4,221.7z"/>
</g>
</svg>
