<?xml version="1.0" encoding="utf-8"?>
<!-- Generator: Adobe Illustrator 21.0.2, SVG Export Plug-In . SVG Version: 6.00 Build 0)  -->
<svg version="1.1" id="Layer_1" xmlns="http://www.w3.org/2000/svg" xmlns:xlink="http://www.w3.org/1999/xlink" x="0px" y="0px"
	 viewBox="0 0 300 300" style="enable-background:new 0 0 300 300;" xml:space="preserve">
<style type="text/css">
	.st0{fill:url(#SVGID_1_);}
	.st1{opacity:0.2;fill:none;stroke:#FFFFFF;stroke-width:1.25;stroke-miterlimit:10;}
	.st2{opacity:0.2;}
	.st3{fill:#FFFFFF;}
</style>
<linearGradient id="SVGID_1_" gradientUnits="userSpaceOnUse" x1="60.521" y1="232.905" x2="223.7162" y2="81.6996">
	<stop  offset="0" style="stop-color:#F8C32E"/>
	<stop  offset="0.2034" style="stop-color:#D3A62D"/>
	<stop  offset="0.4068" style="stop-color:#B6902C"/>
	<stop  offset="0.609" style="stop-color:#A2802B"/>
	<stop  offset="0.808" style="stop-color:#95762B"/>
	<stop  offset="1" style="stop-color:#91732B"/>
</linearGradient>
<circle class="st0" cx="150" cy="150" r="148.3"/>
<circle class="st1" cx="150" cy="150" r="128.2"/>
<g class="st2">
	<path class="st3" d="M200.6,134.8h-51.8v-7c0-13.8-10.9-25.1-24.4-25.1h-6.7c-13.4,0-24.4,11.3-24.4,25.1v7.7H99v-7.7
		c0-10.7,8.4-19.5,18.7-19.5h6.7c10.3,0,18.7,8.7,18.7,19.5v7h-3.6c-3.4,0-6.1,2.7-6.1,6.1v50.3c0,3.4,2.7,6.1,6.1,6.1h61.1
		c3.4,0,6.1-2.7,6.1-6.1v-50.3C206.7,137.5,203.9,134.8,200.6,134.8z M202.4,191.2c0,1-0.8,1.9-1.9,1.9h-61.1c-1,0-1.9-0.8-1.9-1.9
		v-50.3c0-1,0.8-1.9,1.9-1.9h61.1c1,0,1.9,0.8,1.9,1.9V191.2z"/>
	<path class="st3" d="M186.1,149.9c-6.1,8.3-12.2,16.6-18.3,24.9c-3.8-4.7-7.6-9.4-11.4-14.1c-2.1-2.6-5.9,1.1-3.7,3.7
		c4.5,5.5,8.9,11,13.4,16.6c1.2,1.5,3.3,0.7,4.2-0.5c6.8-9.3,13.6-18.6,20.4-27.8C192.6,149.8,188,147.2,186.1,149.9z"/>
</g>
</svg>
