<svg id="Layer_1" data-name="Layer 1" xmlns="http://www.w3.org/2000/svg" xmlns:xlink="http://www.w3.org/1999/xlink" viewBox="0 0 513.97 509.97"><defs><style>.cls-1{fill:url(#linear-gradient);}.cls-2{fill:#f2f2f2;opacity:0.7;}</style><linearGradient id="linear-gradient" x1="519.34" y1="526.7" x2="-0.85" y2="6.5" gradientUnits="userSpaceOnUse"><stop offset="0" stop-color="#b3b3b3"/><stop offset="0.02" stop-color="#e6e6e6"/><stop offset="1" stop-color="#fff"/></linearGradient></defs><title>confirm-01-01</title><path class="cls-1" d="M514,148.29v45.24c-2.58,10.87-10.73,18.83-20.43,20-.75,0,.47.91.05.28q-.27-.41.39-.4c8.2.1,16.76,7.42,18.88,16,.4,1.61.12,3.38,1.1,4.85v44.11c-2.79,11.66-10.91,19.14-21.74,20,9.91-.66,17.68,6.33,21.74,19.57v45.24c-.82,7.48-5.59,12.43-11.12,16.7-3.13,2.41-6.79,4-11,2.8,11.43-.05,20.85,10.64,22.11,20.09v44.11c-2.27,12.13-11.75,21.35-20.9,20.32,11.51,2.16,18.33,9.11,20.9,20.39,0,14.13-.07,28.27.07,42.4,0,2.4-.42,3.34-2.89,2.87a15.28,15.28,0,0,0-2.82,0q-249.58,0-499.16.14c-4.77,0-5.4-1.2-5.39-5.6Q4,266.2,3.81,5c0-3.81.45-5,4.8-5Q259,.23,509.46,0c3.89,0,4.87.76,4.62,4.65C513.68,11,514,17.47,514,23.88c-2.7,11.31-10.76,18.95-21.15,20-.74.13.09,1.24-.14.52q-.15-.47.23-.51c7.33-.79,17.69,7.17,20,15.24.41,1.43,0,3,1,4.3v44.11c-1.1,12.19-11.27,19.81-21,21.29-.74.16.3.92-.06.26q-.25-.45.26-.5c7.84-.79,17.33,6.65,19.8,15.39C513.34,145.43,513,147,514,148.29Z"/><path class="cls-2" d="M514,317.94c-2.83-3.67-4.11-8.24-7.53-11.66-4-4-8.14-7.14-15.32-7.88,12-3.14,18.69-10.22,22.85-20Z"/><path class="cls-2" d="M514,487.59c-4.45-9.42-10.22-17.4-22.12-19.69,11.5-3.27,18.69-10.26,22.12-21Z"/><path class="cls-2" d="M514,63.47C509.51,54,503.76,46,491.74,43.77c11.34-3,18.08-10.06,22.24-19.89Z"/><path class="cls-2" d="M514,234.25c-3.22-6-5.12-12.81-11.5-16.77-3.11-1.93-6.4-3-10.74-4.06,11.34-3,18.08-10.07,22.24-19.89Z"/><path class="cls-2" d="M514,402.77c-2.25-3.61-3.55-7.69-6.73-10.89-4.22-4.24-8.52-7.9-14.92-8.68,11-2.77,17.34-10.33,21.66-20Z"/><path class="cls-2" d="M514,148.29c-4.26-9.77-9.94-18-23.41-19.67,12.91-3.17,19.95-10.27,23.41-21Z"/><path class="cls-2" d="M366.1,213.25c-10.86,3.08-18.08,9.65-21.74,21.49-1.8-5.78-4.18-10.16-8-13.71s-8-6.74-15.16-7.46c12.09-3.4,19.7-9.61,22.87-22C347.88,203.42,355.11,210.22,366.1,213.25Z"/><path class="cls-2" d="M321.51,468c11.71-3.23,17.58-8.75,23-21,3.2,11.16,10.67,17.44,21.85,20.94-11.49,2.61-18.29,9.64-22,20.93C340.44,478.07,334.21,470.28,321.51,468Z"/><path class="cls-2" d="M471.46,194.19c-2.25-13-10.07-19.08-20.91-23.63,11.5-3.3,17.87-10.67,21-21.41,3.3,10.51,9.29,18.25,21.31,21.31-5.71,2.51-10.07,5-13.93,8.67C474.85,183,473.17,187.58,471.46,194.19Z"/><path class="cls-2" d="M322.1,383.18c11-3.5,18.76-9.56,22.13-21.67,3.37,11.34,10.64,17.7,21.45,21.55-11.14,3.15-17.76,10-21.34,21.32a34.17,34.17,0,0,0-8.08-13.89C332.43,386.35,327.77,384.57,322.1,383.18Z"/><path class="cls-2" d="M197.12,382.85c-11.43,3.09-14.42,5.82-22.69,20.13-4.16-9.77-10-17.74-22.19-19.73,11.16-3.54,18.85-9.56,22.21-21.3C179,372.3,184.77,380.52,197.12,382.85Z"/><path class="cls-2" d="M344.27,150.06a30.58,30.58,0,0,0-21.3-21.7c10.72-3.51,18.11-9.69,21.21-22,3.38,12.13,10.49,18.61,21.91,21.92C354.62,131.79,347.93,138.64,344.27,150.06Z"/><path class="cls-2" d="M344.31,64.85c-3.53-11.49-10.9-18-21.71-21.14,10.55-3.31,18.2-9.42,21.51-21.15,4.11,10.8,10.42,18.55,22.1,21C355.11,46.67,348,53.47,344.31,64.85Z"/><path class="cls-2" d="M47.63,193.85c-3.3-11.7-5.84-15.35-20.39-23.37,10.92-3.14,16.91-10.88,20.22-21.18,3.2,10.29,9.17,17.86,20.59,21.3C58,175.1,49.75,181.05,47.63,193.85Z"/><path class="cls-2" d="M89.43,447.17c6.8,13.06,11.4,17.31,22.62,20.85-11.64,2.36-18.32,9.47-22,20.72-4.13-10.51-10.31-18.34-21.78-20.79C78.43,464.37,86.36,458.66,89.43,447.17Z"/><path class="cls-2" d="M471.76,446.11c-3.07-10.8-10.59-16.71-21.36-20.81,11.61-3.45,17.85-10.9,21.13-21.5,3,10.56,9.52,17.71,20.67,21.31-4.25,2.95-9.26,4-12.71,7.91S472.85,440.55,471.76,446.11Z"/><path class="cls-2" d="M174.57,22.82c4.3,10.41,10.12,18.55,21.81,20.77-11.28,2.59-17.71,10.16-21.72,20.62C170.1,52.78,164,47.09,153.09,43.66,163.73,40.76,170.8,34.07,174.57,22.82Z"/><path class="cls-2" d="M450.28,43.38C438,48.67,432.69,54,429.44,64.4,425,54.09,418.9,46,406.23,43.58c12.08-2.37,18.48-9.64,22.93-20.34C433.12,33.95,440,40.29,450.28,43.38Z"/><path class="cls-2" d="M492.25,255.48c-9.94,4.34-18,10-20.45,22.76-3.5-12.15-10.5-18.78-21-22.62,11.14-3.78,17.89-10.77,20.76-21.5C474.85,244.42,480.85,252.14,492.25,255.48Z"/><path class="cls-2" d="M259.4,446.33c3.58,11.56,10.74,17.69,21.23,21.46-10.82,3.29-17.36,10.29-21.23,20.81-3.91-10.87-10.27-18.28-22.27-20.54C248.25,464.54,255.9,458.48,259.4,446.33Z"/><path class="cls-2" d="M429.15,445.72c3.33,12.53,11,18.25,21.43,22.32-11.14,2.55-17,9.9-21.43,19.77C424.81,478,419,470.6,407.47,468.08,418.38,464.06,425.88,457.88,429.15,445.72Z"/><path class="cls-2" d="M449.57,298.07c-10.94,5-14.24,8.15-20.57,19.81-4.09-9.48-10-16.81-21.79-19.48,11.37-3.74,18.15-10.6,22-20.8C433.54,288.6,437.92,292.92,449.57,298.07Z"/><path class="cls-2" d="M344.33,319.56c-3.87-11.69-10.66-18.71-21.65-21.36,10.34-3.32,18.12-9.28,21.5-21.31,3.62,11.16,10.7,17.57,21.34,21.26C354.56,301.45,347.91,308.33,344.33,319.56Z"/><path class="cls-2" d="M259.31,64.56c-3.43-11.57-11.06-17.69-22.51-21,11.8-2.72,18.71-9.36,22.47-20.45,4.37,9.71,9.53,18.4,21.29,20.36C269.61,46.69,263.31,54.08,259.31,64.56Z"/><path class="cls-2" d="M68.46,255.53c-10.67,4-18,10.34-21.1,22.48-2.92-12.2-10-18.75-20.79-22.18,11.23-4.41,13.93-7.17,20.94-21.06C51,245,57.13,252.33,68.46,255.53Z"/><path class="cls-2" d="M322.24,256C311.41,259.62,305,266.34,302,276.91c-4-10.33-9.8-18-21.76-21.06,11-3.84,18.25-10.28,21.62-21.68C304.66,245.51,312.33,251.05,322.24,256Z"/><path class="cls-2" d="M132.3,446c-3.33-10.45-10.35-16.86-20.89-20.79,11.29-3.54,17.65-10.89,20.85-21.74,2.62,11.23,9.69,17.85,20.59,21.64C143.07,429.32,135.17,435.1,132.3,446Z"/><path class="cls-2" d="M68.56,425.25c-10.42,4.27-18.5,9.61-20.79,22-3.91-11.17-10.18-18.45-21.46-21.85,11.39-3.82,18.13-10.8,21.1-21.62C50.46,414.37,56.93,421.57,68.56,425.25Z"/><path class="cls-2" d="M89.63,192.08c4,11.47,11.19,18.22,22,21.19-7.19,2.42-11.73,2-21.93,19.64-4.3-9.79-10.54-17.27-21.62-19.51C78.45,210,86.19,204.23,89.63,192.08Z"/><path class="cls-2" d="M238.53,298.2c9.91-4,17.61-9.46,20.62-21.19,4,10.72,10.73,17.59,21.62,21.11-11.08,3.23-17.53,10.39-21.32,20.63C255.28,307.87,250.77,303.44,238.53,298.2Z"/><path class="cls-2" d="M197,467.88c-11.95,2.31-18.67,9.42-22.23,21-4.08-11.12-10.37-18.58-22.19-20.8,10.7-3.75,18.64-9.47,21.9-21.74C178.44,457.77,185.45,464.89,197,467.88Z"/><path class="cls-2" d="M386.56,402.49c3.3,12,9.75,18.84,20.89,22.76-10.21,3.83-17.21,10.32-20.68,21.14-3.24-10.82-10.41-17.22-20.75-21.08C376.79,421.28,384.29,415,386.56,402.49Z"/><path class="cls-2" d="M450.73,213.58c-11.55,2.76-17.78,9.85-21.2,20.88-4.28-10.52-10.38-18.12-21.64-21.07,10.76-3.5,17.53-10.21,21.39-21.08C432.51,203.6,440.09,209.55,450.73,213.58Z"/><path class="cls-2" d="M196.75,213.25c-12.15,3.43-15.25,6.28-22.29,20.43-3.52-10.21-10.06-17.16-20.8-20.29,10-4,17.7-9.5,20.61-21C178.82,202.93,185.29,210.64,196.75,213.25Z"/><path class="cls-2" d="M132.48,233.56c2.54,11.41,9.39,18.36,21.44,22-12.35,3.45-18.87,10.83-21.7,22-2.79-11.17-9.88-18-21-22.07C123,252.22,129,244.44,132.48,233.56Z"/><path class="cls-2" d="M217.12,318.63c2.64,11.45,9.76,17.88,20.56,21.72-9.88,4.12-17.62,10.12-20.49,21.41-3.56-10.64-10.2-17.48-21.05-21.3C207.53,336.95,213.85,329.55,217.12,318.63Z"/><path class="cls-2" d="M26.51,340.48c11.37-3.77,18-10.88,20.94-21.56,2.89,10.6,9.45,17.59,20.69,21.48-9.86,4.27-18.36,9.62-20.74,21C44.6,350.42,36.84,344.5,26.51,340.48Z"/><path class="cls-2" d="M197.22,255.55c10.25-4.39,17.17-11,20-22.66,2.45,12.16,9.56,18.85,21.86,22.74-12.15,3.26-19.09,9.92-21.71,20.91C210.92,263.52,209.56,262.1,197.22,255.55Z"/><path class="cls-2" d="M217.2,192.42c-3.3-11.41-10.54-17.69-21.35-21.82,11.84-3.34,18.13-10.83,21.36-22,2.67,11.42,9.4,18.48,21.54,22.09C227.15,174.38,219.77,180.61,217.2,192.42Z"/><path class="cls-2" d="M68.9,298.21c12.39-5.3,17.61-10.55,20.65-21.16,3.84,10.77,10.78,17.54,21.62,21.14-10.93,2.86-17,10-21.32,20C85.59,308.38,79.54,301.2,68.9,298.21Z"/><path class="cls-2" d="M153.19,340.31C142.88,344.54,134.95,350,132.5,362c-3.8-10.89-10.35-17.92-21.66-21.6,11.83-3.08,17.52-10.75,21.51-21C135.77,329.86,141.91,337,153.19,340.31Z"/><path class="cls-2" d="M174.61,319.34c-3.86-11.43-10.44-18.39-21.66-21.16,5-1.76,9.64-3.67,13.33-7.37s6.86-7.42,8.06-13.11c3.95,10.62,11.28,17.37,22.51,20.58C185,300.44,178.45,307.76,174.61,319.34Z"/><path class="cls-2" d="M111.38,43.67C100.25,46.8,94.35,54,90,63.47c-4.85-8.94-10-17.14-21.32-19.55C79,40,86.31,34,89.5,23,93.84,32.81,99.66,40.65,111.38,43.67Z"/><path class="cls-2" d="M386.56,148.28c3.25,11.69,9.88,18.69,21.09,22.43-10.51,3.86-17.57,10.52-20.81,21.12-5.35-13.53-7.88-15.49-20.85-21.2a28.77,28.77,0,0,0,13.37-8C383.08,158.87,385.19,154.5,386.56,148.28Z"/><path class="cls-2" d="M302.07,192.47c-3.81-10.86-10.15-18-21.53-21.73,11.57-3.8,18.51-10.69,21.28-21.79,3,11,9.68,18.09,21.51,22C311.71,174.12,304.61,180.64,302.07,192.47Z"/><path class="cls-2" d="M471.58,319.68c3.64,10.32,9.82,17.29,20.7,20.57-9.94,4.25-17.7,10.19-20.72,21.82-3.14-11.34-10.32-17.73-21-21.68C461.61,337,467.92,330,471.58,319.68Z"/><path class="cls-2" d="M153.31,128.41c10.52-3.58,17.93-9.57,21.17-20.89,4,11,11,18,22.69,21.11-12.49,1.94-18.83,9.68-22.52,20.92C170.92,138.49,164.32,131.7,153.31,128.41Z"/><path class="cls-2" d="M111.53,383.06c-11.49,2.76-17.76,9.45-21.41,20.17-4.67-9.84-10.4-17.58-21.84-20,10.6-4.13,18.32-9.89,21.3-21.49C93.69,372.17,99.83,379.65,111.53,383.06Z"/><path class="cls-2" d="M280.76,383.58c-11.92,1.79-17.61,9.71-21.28,20.28-4-11.07-10.58-18.29-21.68-20.81,10.36-3.39,18.19-9.28,21.19-20.35C267.34,378.21,270.44,378,280.76,383.58Z"/><path class="cls-2" d="M281.34,128.35c-12.09,2.93-18.64,10-21.76,21.51-3.83-11.34-10.4-18.13-21.27-21.4,10-4,18-9.36,20.76-21.67C263.07,118.22,269.89,125.12,281.34,128.35Z"/><path class="cls-2" d="M429.5,362c3,11.4,10.68,17.06,20.54,21-10.58,3.2-17.14,10-20.83,20.92-3.69-10.65-9.4-18.55-21.33-20.37C421.12,376.72,424.13,373.76,429.5,362Z"/><path class="cls-2" d="M386.71,318.91c3.28,10.38,9.35,18,20.15,21.22-14.32,8.93-15.23,9.87-20.32,21.58-2.48-11.46-9.85-17.64-21-21.21C377.08,336.75,383.81,329.73,386.71,318.91Z"/><path class="cls-2" d="M302.12,447c-3.87-10.83-10.13-18.07-21.25-21.64,11.49-3.63,17.85-11,21.12-22,2.26,11.68,10.05,17.65,20.83,22C312.18,428.94,304.47,434.91,302.12,447Z"/><path class="cls-2" d="M367.27,256c15.18-11.85,15.18-11.85,19.45-21.09,3.9,9.74,9.42,17.64,21.59,20.59-11.33,3.74-18.62,10.14-21.5,21.91C383.82,266.14,376.64,260.06,367.27,256Z"/><path class="cls-2" d="M302,318.65c2.59,11.43,9.75,17.85,20.85,21.81-10.36,3.77-18.46,9.35-20.57,21.88-4.07-10.93-10.12-18.34-21.64-21.82C292.37,337,298.63,329.56,302,318.65Z"/><path class="cls-2" d="M217.33,447.16c-3.93-11.11-10.26-18.28-21.69-22,11.86-3,17.49-10.7,21.54-20.9,3.17,10.74,9.85,17.48,21,21C227.32,429,219.56,434.9,217.33,447.16Z"/><path class="cls-2" d="M132.31,192.42c-2.27-11.37-10-17.59-21.2-21.62,11.69-3.53,17.95-11,21.14-21.53,3,10.69,9.58,17.8,20.7,21.47C142.69,175,134.37,180.64,132.31,192.42Z"/><path class="cls-2" d="M281.43,213.46c-12.47,2.58-18.32,10.15-22,20.84-3.78-10.68-9.94-17.79-21.31-20.7,10.13-4.2,18-9.62,20.94-21.34C263.32,202.68,269.61,210.06,281.43,213.46Z"/><path class="cls-2" d="M47.18,64.29C50.7,76.22,58.93,83.05,68.73,86.13c-11,3.32-18.51,9.34-21.09,21.47C44.32,96.67,37.56,90.31,27.31,86.18,37.25,82,44.13,75.65,47.18,64.29Z"/><path class="cls-2" d="M238,86.32c-11.81,3.38-18.13,10-20.8,21.25C213.84,96.3,206.76,89.76,195.9,85.9c11.6-3.14,17.35-10.81,21.33-21C219.87,75.8,227.28,81.66,238,86.32Z"/><path class="cls-2" d="M408.53,128.44c10.37-3.62,17.25-10.11,20.62-21.21,3.36,11.1,10.25,17.58,21.48,21-11.14,3.05-17.83,9.56-21.36,20.12C425.63,138,419.11,131.1,408.53,128.44Z"/><path class="cls-2" d="M386.64,64.79c3.69,10.16,9.55,17.35,20.25,21.05-9.73,4.63-17.33,10.48-20,21.19-5-12.51-5-12.51-19.66-21.14C376.61,81.75,383.89,75.74,386.64,64.79Z"/><path class="cls-2" d="M67.56,128.61c11.71-3.77,19-9.95,22.2-21.59,3.37,11.42,10.73,17.71,21.59,21.64-11.29,2.51-17.93,9-21.35,21.1C85.94,138.3,80,130.88,67.56,128.61Z"/><path class="cls-2" d="M492.88,85.91c-11,4-19,9.3-21,21-3-11-10.19-17.28-21.62-20.87,11-3.85,18.29-10,21.19-21C475.19,75.32,481.28,82.58,492.88,85.91Z"/><path class="cls-2" d="M302.09,107.72C298.67,96.43,291.79,89.85,280.73,86c11.31-3.21,17.32-10.54,21.22-21,3,10.63,9.27,17.37,19.74,21.15C311.44,89.63,304.51,96.06,302.09,107.72Z"/><path class="cls-2" d="M132.49,64.11c2.65,11.75,9.84,17.57,20.46,22.21-11.22,3.28-18.08,9.8-20.81,20.68-2.24-11-9.41-16.93-20.39-20.76C122.25,82.15,128.74,75.37,132.49,64.11Z"/><path class="cls-2" d="M334.1,155.33c1.16,4.84-1.63,5.63-6,5.46-10.63-.41-18.05-9.09-16.64-19.6.27-2,1-2.82,3.08-3.11C325.64,136.53,335.44,145.49,334.1,155.33Z"/><path class="cls-2" d="M461.95,368.14c1.11,4.64-1.65,5.58-6,5.24-10.94-.84-17.51-8.32-16.65-19,.17-2.13.57-3.34,3.08-3.68C453.26,349.22,462,356.66,461.95,368.14Z"/><path class="cls-2" d="M361,96.26c10.29,0,18.29,10.39,16.08,20.13-.34,1.5-.94,2.28-2.5,2.45-12.13,1.28-21.59-7.25-20-20C355.18,94.3,359.17,97.18,361,96.26Z"/><path class="cls-2" d="M184.88,356.39c-.92-4.19.82-5.62,5.64-5.8,11.53-.43,17.53,9.51,16.95,19.78-.1,1.71-.63,2.8-2.57,3C195.18,374.11,184.13,368.54,184.88,356.39Z"/><path class="cls-2" d="M31.68,222.94c6.22,0,6.8.61,6.11,6.73C36.6,240.31,29,246.58,18.68,245.57c-1.82-.18-3.06-.39-3.49-2.66A16.71,16.71,0,0,1,31.68,222.94Z"/><path class="cls-2" d="M269.68,408.93c0-10.33,9.74-18.13,19.86-16.35,1.8.32,2.68,1,2.74,2.81.37,11.09-5.64,21.41-19.68,19.8C267.83,414.64,270.47,410.88,269.68,408.93Z"/><path class="cls-2" d="M249.29,70.27c1.16,4.79-1.47,5.52-6.15,5.81-9.29.57-18.25-9-16.42-20.19.31-1.89,1.25-2.47,3-2.59C240.34,52.53,250,59.8,249.29,70.27Z"/><path class="cls-2" d="M73.22,435.56c6.49,0,8.46,2.89,6.13,10.32-3,9.73-10.18,12.5-19.61,12.27-1.9,0-2.52-1.08-2.69-2.84C56.12,445.28,63.41,434,73.22,435.56Z"/><path class="cls-2" d="M106,435.56c11.66-.76,17.33,10.13,16.58,20-.15,1.91-1.14,2.57-2.89,2.63-11.33.42-21.39-5.62-19.66-19.66C100.44,435.56,100.58,435.56,106,435.56Z"/><path class="cls-2" d="M503.76,324.88c1.08,4.57-1.3,5.59-5.83,5.6-11.44,0-17.48-9.47-16.73-20,.13-1.87,1-2.51,2.82-2.72C494.37,306.57,504.85,313.88,503.76,324.88Z"/><path class="cls-2" d="M226.7,27.94C226.8,17.09,237,9,246.94,11.47a2.59,2.59,0,0,1,2.35,2.59c1.15,13.72-7.5,20.84-20,19.88C225,33.61,227.44,29.81,226.7,27.94Z"/><path class="cls-2" d="M191,330.38c-6,0-8.55-5.8-5.49-12.31A18.37,18.37,0,0,1,204,307.74c1.86.18,3.3.4,3.43,2.73C208,319.56,203.08,330.7,191,330.38Z"/><path class="cls-2" d="M164.5,324.81c1.07,4.58-1.32,5.77-6.19,5.68-11.17-.2-17.11-9.43-16.41-19.95.12-1.84,1-2.49,2.78-2.79A17,17,0,0,1,164.5,324.81Z"/><path class="cls-2" d="M62.89,307.76a16.77,16.77,0,0,1,16.79,19.68c-.27,1.71-.76,2.68-2.66,2.93C63,332.24,56.42,321.3,57.1,310.63,57.38,306.18,61,308.39,62.89,307.76Z"/><path class="cls-2" d="M249.31,494.47c1.15,4.75-1.47,5.8-6.24,5.65a17.07,17.07,0,0,1-16.39-20c.32-1.82,1-2.62,2.85-2.73C240.17,476.74,249.52,482.83,249.31,494.47Z"/><path class="cls-2" d="M354.51,494a16.85,16.85,0,0,1,19.66-16.61c2.12.32,2.87,1.19,3,3.23.49,11.55-6.41,20.21-18.56,19.55C353.56,499.88,354.62,496.84,354.51,494Z"/><path class="cls-2" d="M328.41,500a16.85,16.85,0,0,1-16.9-19.61c.25-1.68.69-2.62,2.58-3,11.32-2.38,22.71,9.1,20,20.21C333.19,501.44,330.21,499.43,328.41,500Z"/><path class="cls-2" d="M105.45,245.54c-4.56,1.09-5.61-1.38-5.5-5.91a17,17,0,0,1,19.63-16.73c2.07.28,3,1,3.08,3.11C123.25,237.15,116.53,246,105.45,245.54Z"/><path class="cls-2" d="M164.46,240.05c1.11,4.65-1.35,5.83-5.89,5.56-12.52-.75-17-9.26-16.68-19.72.06-2.18,1.18-2.78,3.2-3C155.37,221.89,165.55,229.29,164.46,240.05Z"/><path class="cls-2" d="M191.08,245.56c-5.93,0-8.45-5-5.86-11.77,2.69-7,11.69-12,19.31-10.87,1.72.26,2.79.73,2.91,2.67C208,234.54,203.21,245.83,191.08,245.56Z"/><path class="cls-2" d="M328.57,245.47c-11.16,1.21-18.39-10.67-17-19.89.28-1.9,1.22-2.39,2.94-2.66,11.47-1.79,21.12,7.85,19.73,19.5C333.61,247.36,329.93,244.63,328.57,245.47Z"/><path class="cls-2" d="M444.89,245.55c-4.75,1.15-5.8-1.47-5.65-6.24a17.07,17.07,0,0,1,20-16.39c1.82.32,2.62,1,2.73,2.85C462.62,236.4,456.53,245.76,444.89,245.55Z"/><path class="cls-2" d="M327.73,265.91c6.44,0,8.14,2.86,6.16,10.37-2.12,8-11.4,13.76-19.71,12.24a2.76,2.76,0,0,1-2.63-2.32C309.07,276.39,317.38,265.9,327.73,265.91Z"/><path class="cls-2" d="M190.5,265.94c12.11-.76,17.72,10.23,16.95,20-.15,1.93-1.21,2.47-2.93,2.6-8.83.67-20.52-5-19.83-17C185,266.78,186.32,265,190.5,265.94Z"/><path class="cls-2" d="M360,415.2c-4.81,1.17-5.4-1.61-5.7-6.26-.66-10.45,10.82-17.65,20-16.35,1.85.26,2.62,1,2.74,2.84C377.8,406.07,371.69,415.42,360,415.2Z"/><path class="cls-2" d="M334.15,409.72c1.16,4.8-1.59,5.72-6.29,5.57a17.07,17.07,0,0,1-16.34-20c.34-1.84,1.13-2.44,2.88-2.72A17.25,17.25,0,0,1,334.15,409.72Z"/><path class="cls-2" d="M244.08,415.2c-11.15,0-18.6-8.57-17.43-19.35.26-2.42,1.22-3.09,3.49-3.3,10.72-1,19,6.56,19.28,17.15C249.53,414.3,248,416,244.08,415.2Z"/><path class="cls-2" d="M158.71,415.2c-11.36.24-17.5-9.1-16.82-19.77.12-1.81.85-2.74,2.74-2.82,11.14-.51,21.55,5.36,19.87,19.69C164,416.74,160.6,414.6,158.71,415.2Z"/><path class="cls-2" d="M503.77,17C504.61,28.93,494,34.74,483.95,34c-1.84-.13-2.48-1-2.78-2.77C479.22,20,489.3,9.83,500.77,11.4,505.15,12,503.3,15.13,503.77,17Z"/><path class="cls-2" d="M249.32,441.68c.35,12-10.69,17-19.85,16.49-1.86-.1-2.57-1-2.76-2.81-1.15-10.59,6.14-21.88,19.73-19.75C249.34,436.06,249.34,436.1,249.32,441.68Z"/><path class="cls-2" d="M328.56,350.74c4.52-1,5.93,1.22,5.67,6.13-.55,10.58-9.27,18-19.78,16.5-1.71-.25-2.56-.78-2.93-2.64A16.93,16.93,0,0,1,328.56,350.74Z"/><path class="cls-2" d="M100,494c0-10.83,11.05-19.22,20.44-16.53a2.68,2.68,0,0,1,2.16,2.8c.81,10.25-6,19.79-16,19.91C101.15,500.23,98.77,498.73,100,494Z"/><path class="cls-2" d="M159,350.74c4.83-1.18,5.63,1.61,5.6,6.3-.08,12.23-11.37,16.87-20.14,16.28-2-.13-2.35-1.29-2.59-3A16.89,16.89,0,0,1,159,350.74Z"/><path class="cls-2" d="M100,356.25c-1.22-4.95,1.71-5.53,6.32-5.63,11.25-.24,17,10.11,16.27,20-.14,1.9-1.08,2.59-2.86,2.7C109,374,99.76,367.78,100,356.25Z"/><path class="cls-2" d="M249.28,155.13c1.27,5.11-1.71,6-6.32,5.64-12-1-16.44-8.9-16.26-19.56,0-2.11,1-2.9,3.06-3.11C240.16,137,250.33,144.45,249.28,155.13Z"/><path class="cls-2" d="M419,323.42c0,7.15,0,7.19-7.12,7-12.19-.4-16.1-12.16-15.42-20.29a2.42,2.42,0,0,1,2.06-2.27C407.8,305,418.92,313.48,419,323.42Z"/><path class="cls-2" d="M360,330.38c-4.14.93-5.74-.9-5.61-5.73a17.19,17.19,0,0,1,19.5-16.92c2,.23,2.92.82,3.25,3A17,17,0,0,1,360,330.38Z"/><path class="cls-2" d="M243.32,330.38a16.81,16.81,0,0,1-16.64-19.63c.25-1.69.66-2.83,2.61-3C242,307,251,314.85,249.22,328,248.88,330.39,248.6,330.39,243.32,330.38Z"/><path class="cls-2" d="M73.89,500c-10.66.7-17.68-9.41-16.83-19.83.15-1.86,1-2.67,2.81-2.75C71.2,477,81.36,483,79.66,497.18,79.13,501.6,75.72,499.4,73.89,500Z"/><path class="cls-2" d="M361,435.56c10.32,0,18.55,10.72,16.11,20.31-.5,1.95-1.65,2.14-3.25,2.32a17.24,17.24,0,0,1-19.39-19.35C355,433.56,358.94,436.41,361,435.56Z"/><path class="cls-2" d="M328.52,435.57c5.17-1.31,6,1.89,5.66,6.66-.94,12.44-10.5,16.13-19.91,15.93-1.88,0-2.46-1-2.75-2.81A17,17,0,0,1,328.52,435.57Z"/><path class="cls-2" d="M275.85,435.56c11.36-1,17.18,11,16.45,19.8-.19,2.26-1.39,2.72-3.34,2.83-8.95.5-20.3-5.37-19.36-17C270.06,435.57,269.71,435.54,275.85,435.56Z"/><path class="cls-2" d="M275.13,265.93c13-.52,17.23,9.94,17.14,19.84,0,2.28-1.43,2.67-3.33,2.77-9,.51-20.09-5.48-19.41-16.81C269.8,267.21,270.7,264.9,275.13,265.93Z"/><path class="cls-2" d="M439.36,271.51c-1.22-5,1.63-5.83,6.28-5.68a17.06,17.06,0,0,1,16.31,20c-.34,1.84-1.12,2.56-2.89,2.69C448.48,289.33,438.6,282.14,439.36,271.51Z"/><path class="cls-2" d="M249.32,272c.2,12.55-11.33,17.15-20.06,16.54-1.57-.11-2.18-.9-2.54-2.42-2.62-11.38,8.38-22.46,20-20.14C251,266.79,248.6,270.09,249.32,272Z"/><path class="cls-2" d="M20.83,500c-4.89,1.19-5.86-1.52-5.71-6.24a17.06,17.06,0,0,1,20-16.36c1.82.32,2.59,1,2.74,2.84C38.64,490.75,31.53,500.73,20.83,500Z"/><path class="cls-2" d="M445.79,415.21c-6.64.07-8-2-6.35-9.85,1.71-8.21,11.67-14.53,20-12.76,1.51.32,2.33.88,2.5,2.46C462.9,404.72,456.64,415.6,445.79,415.21Z"/><path class="cls-2" d="M503.8,272.1c-.11,10-11,18.62-20.22,16.41-1.54-.37-2.26-1-2.37-2.59-.81-11.84,6.51-22.14,20.06-19.93C505.51,266.68,503,270.21,503.8,272.1Z"/><path class="cls-2" d="M269.68,493.42c0-10.28,11.06-18.64,20.45-16a2.58,2.58,0,0,1,2.14,2.8C292.48,491.69,287,501,272.85,500,267.57,499.65,270.58,495.46,269.68,493.42Z"/><path class="cls-2" d="M184.85,408.81c0-10.34,10.36-18.44,20.17-16.22,1.91.43,2.43,1.43,2.44,3.12.05,11.05-5.13,19.85-18.59,19.58C183.22,415.17,185.33,411.28,184.85,408.81Z"/><path class="cls-2" d="M105.69,415.19c-4.58,1.06-5.94-1.22-5.76-6.14a17.08,17.08,0,0,1,19.86-16.47c1.75.29,2.73.85,2.84,2.73C123.15,404.39,118.26,415.49,105.69,415.19Z"/><path class="cls-2" d="M79.66,409.67c1.18,4.86-1.58,5.72-6.28,5.63-11.35-.23-17-9.72-16.31-20,.13-1.91,1.11-2.57,2.88-2.68C70.71,391.93,79.92,398.17,79.66,409.67Z"/><path class="cls-2" d="M184.85,494.58c0-11.05,9.1-18.69,19.61-17.2,2.09.3,2.95,1.09,3,3.17.31,9.81-5.2,19.77-16.83,19.61C186,500.09,183.87,498.85,184.85,494.58Z"/><path class="cls-2" d="M503.76,356.33c.79,10.58-9.05,17.8-19.69,17-2.21-.16-2.82-1.26-2.91-3.26-.46-10.53,5.84-19.92,16.82-19.5C502.65,350.78,504.79,351.9,503.76,356.33Z"/><path class="cls-2" d="M360.86,350.74c10.43,0,18.65,10.63,16.23,20.27a2.79,2.79,0,0,1-2.64,2.34c-11.07,2.14-21.94-8.7-19.95-19.85C355.36,348.76,359,351.69,360.86,350.74Z"/><path class="cls-2" d="M226.7,367.47a16.78,16.78,0,0,1,19.7-16.75c1.72.27,2.57.81,2.93,2.67,2.14,11-8.65,21.85-19.82,20C225.13,372.64,227.36,369.37,226.7,367.47Z"/><path class="cls-2" d="M439.33,324.87A17,17,0,0,1,459,307.73c2.14.32,2.83,1.22,2.94,3.24.61,11-6.94,20-16.92,19.56C440.25,330.35,438.4,329,439.33,324.87Z"/><path class="cls-2" d="M20.64,330.38c-4.29,1-5.34-1.17-5.59-5.8-.6-10.82,9.7-18,20-16.81,1.85.22,2.47,1.05,2.77,2.82C39.51,320.62,31.37,330.37,20.64,330.38Z"/><path class="cls-2" d="M328.53,330.39a17,17,0,0,1-17-19.89c.33-1.82,1.09-2.45,2.85-2.75,9.79-1.63,19.19,6,19.83,16C334.5,328.55,333.64,331.67,328.53,330.39Z"/><path class="cls-2" d="M275.47,330.38c-5.69,0-8.15-6.35-4.92-12.62a18.17,18.17,0,0,1,18.1-10c2.14.16,3.72.5,3.64,3.1C292,320.64,288.22,330.52,275.47,330.38Z"/><path class="cls-2" d="M243.67,181.09c5.12-1.29,6.05,1.82,5.69,6.63-.94,12.41-10.43,16.14-19.89,16-1.86,0-2.48-1-2.78-2.79A17,17,0,0,1,243.67,181.09Z"/><path class="cls-2" d="M328.73,75.91c-11.15,0-18.6-8.77-17.24-19.47.26-2,.93-2.88,3-3.18a17.41,17.41,0,0,1,19.72,16.81C334.35,74.71,333.07,76.92,328.73,75.91Z"/><path class="cls-2" d="M360.38,75.84c-5.88,1.71-6-2.21-5.93-7,.27-10.83,11-16.48,20.25-15.53,1.6.16,2.22,1,2.39,2.55C378.2,66,371.1,76.93,360.38,75.84Z"/><path class="cls-2" d="M106.14,181.13c10.6-1,17.59,10,16.49,20-.22,2-1.29,2.51-3,2.54-11.3.23-21-5.92-19.59-19.58C100.54,179.29,104.26,181.83,106.14,181.13Z"/><path class="cls-2" d="M445.06,75.88c-4.66,1.08-5.8-1.23-5.88-6.13-.18-10.35,9.65-17.31,20-16.45,1.88.16,2.61,1,2.73,2.84C462.6,66.22,456.7,76.58,445.06,75.88Z"/><path class="cls-2" d="M419,155.11c1,4.53-1.2,6-6.16,5.71a17.52,17.52,0,0,1-16.49-19.52c.24-2,.88-2.9,3-3.21A16.84,16.84,0,0,1,419,155.11Z"/><path class="cls-2" d="M354.5,155.18c0-11.1,9.22-18.7,19.7-17.1,2.14.33,2.72,1.26,3,3.25a17.29,17.29,0,0,1-16.44,19.48C355.85,161.08,353.41,159.79,354.5,155.18Z"/><path class="cls-2" d="M269.68,154.67a16.81,16.81,0,0,1,19.83-16.57,2.89,2.89,0,0,1,2.8,2.8c1.93,11.15-9,22-20,19.81C268,159.86,270.41,156.55,269.68,154.67Z"/><path class="cls-2" d="M164.5,155.3c1.21,4.91-1.72,5.74-6.34,5.49-12.07-.66-16.6-10.28-16.28-19.59.07-2.1,1-2.84,3.06-3.12C155.55,136.62,164.48,144.14,164.5,155.3Z"/><path class="cls-2" d="M100,154.41a16.89,16.89,0,0,1,20-16.29,2.8,2.8,0,0,1,2.55,2.43c2.54,10.78-9.58,22.86-20.23,20.12C98.33,159.62,100.81,156.3,100,154.41Z"/><path class="cls-2" d="M62.87,138.11c11,0,19,9.76,16.79,20.06a2.8,2.8,0,0,1-2.45,2.53c-10.68,2.5-22.83-9.75-20.11-20.27C58.07,136.67,61.07,138.75,62.87,138.11Z"/><path class="cls-2" d="M32.78,138.11c4.24-.92,5.36,1.4,5.09,5.7-.69,11-8.21,17.72-19,17-2.58-.18-3.54-1-3.75-3.63C14.27,146.17,21.35,138.18,32.78,138.11Z"/><path class="cls-2" d="M418.91,494.1c1,4.66-1,6.23-6,6-10.08-.38-18.34-10.15-16.53-20,.34-1.85,1.12-2.53,2.89-2.7C409.19,476.5,420.61,483.67,418.91,494.1Z"/><path class="cls-2" d="M444.91,500c-5.06,1.25-5.59-1.73-5.69-6.31-.25-11.22,10.06-17,20-16.26,1.9.14,2.57,1.06,2.71,2.85C462.74,490.91,455.53,500.78,444.91,500Z"/><path class="cls-2" d="M461.95,112.79c0,6.28-1.06,7.12-7.36,5.72-11.46-2.54-16-8.16-15.29-18.51.15-2.1.44-3.41,3-3.78C452.84,94.71,461.92,102.26,461.95,112.79Z"/><path class="cls-2" d="M164.46,17c.79,10.57-9,17.8-19.69,17-2.21-.16-2.82-1.26-2.91-3.26-.46-10.53,5.84-19.92,16.82-19.5C163.35,11.48,165.49,12.6,164.46,17Z"/><path class="cls-2" d="M328.66,11.44c4.85-1.19,5.81,1.61,5.55,6.3-.65,12.06-10.24,16.63-19.59,16.32-2.1-.07-2.85-1-3.13-3.06A16.91,16.91,0,0,1,328.66,11.44Z"/><path class="cls-2" d="M269.74,17.38c-1-4.64,1-6.24,6-6,10.09.39,18.34,10.12,16.55,20-.33,1.84-1.09,2.54-2.88,2.71C279.47,35,268,27.81,269.74,17.38Z"/><path class="cls-2" d="M164.5,272c.34,12-10.68,17-19.85,16.47-1.86-.1-2.67-1-2.75-2.81-.47-11.32,5.56-21.55,19.74-19.74C164.52,266.33,164.52,266.47,164.5,272Z"/><path class="cls-2" d="M21.18,11.48C33,10.55,38.69,22.88,37.8,31.5c-.2,2-1.3,2.43-3,2.56-8.92.65-20.27-5.21-19.77-16.67C15.24,12.2,16.86,10.59,21.18,11.48Z"/><path class="cls-2" d="M73.72,265.91c1.75.55,5-1.31,5.62,1.71,1,4.41,1,9.16-1.72,13.07-1.88,2.71-4.23,5.17-7.84,6.09-4.12,1.05-9.5,4.14-12,.4-2.71-4.1-.45-9.93,2.23-14.36S67.95,265.94,73.72,265.91Z"/><path class="cls-2" d="M21.43,265.95c10.67-.95,17.52,10.21,16.35,20.11-.18,1.57-1,2.14-2.5,2.47-11.37,2.45-22.85-9.12-20-20.22C16.3,264.22,19.63,266.69,21.43,265.95Z"/><path class="cls-2" d="M503.77,494.45c1,4.42-1.12,5.54-5.78,5.72-10.08.39-17.49-8.85-16.82-19.68.13-2.1,1-3,3.08-3.1C494.58,476.87,504.57,483,503.77,494.45Z"/><path class="cls-2" d="M20.8,75.87c-5.11,1.27-5.78-1.73-5.67-6.32.26-11.58,10-17,20.1-16.23,1.95.14,2.47,1.24,2.6,3C38.5,65.21,32.6,77,20.8,75.87Z"/><path class="cls-2" d="M419,240.15c1.24,5-1.82,5.62-6.37,5.47-9.83-.32-18.38-10.84-16.23-20.23A2.79,2.79,0,0,1,398.9,223C409.12,220.75,419,228.85,419,240.15Z"/><path class="cls-2" d="M287.19,222.94c4.91-1.16,5.46,2,5.11,6.18-.89,10.75-8.25,17.19-18.82,16.46-2-.14-3.45-.32-3.84-2.93C268,232,275.77,222.87,287.19,222.94Z"/><path class="cls-2" d="M243.84,245.56a17.25,17.25,0,0,1-17.17-19.7c.33-2.14,1.24-2.83,3.26-2.93,11.42-.56,19.63,6.54,19.52,16.87C249.4,244.55,248,246.52,243.84,245.56Z"/><path class="cls-2" d="M79.64,239.95c1,4.36-1,5.57-5.74,5.76-10,.39-17.51-8.77-16.86-19.65.12-2.08.92-3,3-3.13C70.38,222.38,80.43,228.45,79.64,239.95Z"/><path class="cls-2" d="M276.18,181.2c9.14-2.15,17.64,10.4,16.05,20.37-.27,1.69-1.4,1.92-2.81,2.15-9.78,1.6-19.35-6.38-19.84-16C269.29,182.1,271.09,179.87,276.18,181.2Z"/><path class="cls-2" d="M377.13,198.72c1,4.35-1.56,5.3-5.76,5-11-.7-17.72-8.29-16.92-19,.19-2.62,1.08-3.49,3.7-3.69C369.16,180.2,377.08,187.27,377.13,198.72Z"/><path class="cls-2" d="M158.87,75.88c-11.5.79-17.56-9.29-17-19.57.12-2.13,1.07-2.91,3.14-3,10.9-.65,20,6.83,19.64,16.87C164.46,74.88,163.21,76.87,158.87,75.88Z"/><path class="cls-2" d="M275.25,75.91c-4.55,1.06-5.77-1.28-5.69-6.17.18-11.05,9.28-17.12,19.9-16.44,1.81.12,2.52.91,2.85,2.73C294.05,65.89,285.87,75.86,275.25,75.91Z"/><path class="cls-2" d="M184.89,441.25c-1.18-4.88,1.47-5.72,6.2-5.81,10.39-.19,17.25,9.79,16.36,20.07-.17,1.91-1.12,2.53-2.89,2.68C195.68,458.9,183.82,453,184.89,441.25Z"/><path class="cls-2" d="M190.3,75.91c-4.88,1.2-5.46-1.72-5.56-6.32-.25-11.15,9.94-17,19.95-16.28,1.84.13,2.49,1,2.8,2.77C209.19,66.07,201,75.89,190.3,75.91Z"/><path class="cls-2" d="M158.81,435.61c4.42-1,5.91,1,5.78,5.72a17.39,17.39,0,0,1-19.67,16.88c-2.08-.28-2.9-1-3.07-3.13C141,444.55,148.62,434.26,158.81,435.61Z"/><path class="cls-2" d="M106.56,96.26c10.16-1,17.16,10,16.06,20.06-.21,1.95-1.28,2.59-3,2.54-9.72-.29-19.69-4-19.6-16.75C100.07,96.26,100,96.26,106.56,96.26Z"/><path class="cls-2" d="M439.35,17.32c.52-1.69-1.33-4.89,1.69-5.54,4.41-.95,9.23-1.08,13.06,1.72,5.89,4.29,8.18,10.49,7.83,17.72-.09,1.8-.83,2.68-2.72,2.84C448.82,34.91,438.69,27.93,439.35,17.32Z"/><path class="cls-2" d="M419,409.65c1.07,4.57-1.31,5.83-6.18,5.65-10-.36-18.27-10.21-16.45-20,.34-1.84,1.16-2.41,2.89-2.69A17,17,0,0,1,419,409.65Z"/><path class="cls-2" d="M419,70.38c1.18,4.87-1.59,5.77-6.28,5.61-9.9-.34-18.18-10.36-16.33-20.06.36-1.86,1.19-2.53,2.94-2.64C410.1,52.64,419.23,59,419,70.38Z"/><path class="cls-2" d="M354.54,17c-1.22-5,1.61-5.78,6.27-5.69,11.33.23,17,9.69,16.29,20-.13,1.91-1.09,2.55-2.87,2.69C363.62,34.85,353.77,27.64,354.54,17Z"/><path class="cls-2" d="M164.46,494.52c1.08,4.57-1.3,5.58-5.86,5.62-10.53.08-17.32-8.42-16.74-19.62.11-2.08.93-3,3-3.12C155.71,476.71,165.31,484.09,164.46,494.52Z"/><path class="cls-2" d="M73.73,75.91C63.09,76.28,56.45,67.43,57,56.35c.11-2.11,1-3,3.1-3.07,10.35-.46,21.21,5.74,19.5,19.59C79.26,75.91,79.19,75.91,73.73,75.91Z"/><path class="cls-2" d="M503.76,70.25c1.2,4.95-1.52,5.91-6.24,5.75-9.91-.35-18.21-10.38-16.34-20.07a2.77,2.77,0,0,1,2.95-2.63C493,52.59,504.84,58.49,503.76,70.25Z"/><path class="cls-2" d="M20.67,415.21c-4.82,1.17-5.7-1.62-5.54-6.29a17.05,17.05,0,0,1,19.93-16.34,2.88,2.88,0,0,1,2.78,2.81C39.54,405.37,31.39,415.18,20.67,415.21Z"/><path class="cls-2" d="M21.79,96.26c10.23-.93,17.12,10.14,16,20.11-.22,2-1.34,2.54-3,2.48-9.83-.31-19.66-4.07-19.55-16.8C15.25,96.26,15.22,96.26,21.79,96.26Z"/><path class="cls-2" d="M419,17.64c.68,11.07-9.53,17-19.7,16.42-2.19-.13-2.72-1.24-2.95-3.23-1.16-10.3,6.47-19.35,16.48-19.39C419,11.41,419,11.41,419,17.64Z"/><path class="cls-2" d="M361,266c10.59-1.4,17.4,11.06,16,20.4-.25,1.69-1.39,1.93-2.79,2.15A17.41,17.41,0,0,1,354.48,269C355.17,263.81,359.13,266.84,361,266Z"/><path class="cls-2" d="M418.94,271.84c1,11.7-11.11,17.48-19.88,16.69-2.33-.21-2.55-1.59-2.72-3.44-1-10.72,6.61-19,17.16-19.3C418.81,265.62,419.58,268,418.94,271.84Z"/><path class="cls-2" d="M498.21,245.53c-10.4.83-17.77-8.81-17-19.58.12-1.71.61-2.85,2.57-3,12.61-.83,21.74,6.89,20,20.1C503.19,247,499.92,245,498.21,245.53Z"/><path class="cls-2" d="M354.5,239.24a16.87,16.87,0,0,1,19.9-16.31c1.83.33,2.62,1.07,2.71,2.86.44,8.88-3.71,19.12-16,19.76C354.62,245.88,354.46,245.7,354.5,239.24Z"/><path class="cls-2" d="M503.8,187.19c0,10.09-10,18.32-19.9,16.53-1.83-.33-2.6-1.07-2.7-2.87-.64-11.28,6.15-21.7,19.72-19.72C503.82,181.56,503.81,181.62,503.8,187.19Z"/><path class="cls-2" d="M445.74,181.12c10.9-.74,17.36,10.69,16.15,20.28-.26,2-1.62,2.14-3.22,2.32a17.24,17.24,0,0,1-19.39-19.35C439.85,179.09,443.76,181.93,445.74,181.12Z"/><path class="cls-2" d="M419,186.63c0,10.64-9.89,18.76-19.83,17.11-2.22-.37-2.66-1.45-2.81-3.38-.75-9.89,7-20.52,17-19.48C418,181.37,419.87,182.55,419,186.63Z"/><path class="cls-2" d="M334.17,185.91c-.53,13.94-8.47,17-19.23,17.78-2.34.17-3.19-.9-3.46-3.28-1.14-10.14,7-20.66,17.42-19.49C333,181.38,335,182.17,334.17,185.91Z"/><path class="cls-2" d="M105.35,330.38c-4.5,1.08-5.51-1.43-5.4-5.93a17,17,0,0,1,19.57-16.73c2,.26,2.87.94,3.16,3A17.29,17.29,0,0,1,105.35,330.38Z"/><path class="cls-2" d="M79.63,17c.58,11.22-9.81,17.95-19.95,17-1.93-.17-2.54-1.19-2.62-2.93-.58-11.92,6.42-20.86,19.39-19.71C81.39,11.84,78.83,15.53,79.63,17Z"/><path class="cls-2" d="M158.63,181.14c4.63-1,6.16,1,6,6.05-.38,10.08-10.11,18.31-20,16.53-1.83-.33-2.54-1.09-2.71-2.87C140.9,190.44,148.35,179.9,158.63,181.14Z"/><path class="cls-2" d="M79.67,187.15c-.08,10.15-10.73,18.69-20.16,16.54-1.52-.35-2.31-1-2.42-2.53-.84-11.47,6.13-22.15,19.94-20C81.35,181.8,79,185.27,79.67,187.15Z"/><path class="cls-2" d="M22,181.09c10.52-.69,16.93,10.77,15.72,20.33-.26,2-1.64,2.13-3.23,2.3C23,205,13.81,195.82,15.22,184.36,15.63,181.07,15.63,181.07,22,181.09Z"/><path class="cls-2" d="M503.8,155.15c1,4.5-1.21,5.94-6.15,5.67a17.49,17.49,0,0,1-16.5-19.5c.23-2,.82-2.91,3-3.24C494.57,136.49,503.74,144.08,503.8,155.15Z"/><path class="cls-2" d="M184.85,155c0-11.07,9.61-19,20-16.9a2.79,2.79,0,0,1,2.59,2.39c2.62,10.79-9.35,22.76-20.16,20.2C183.45,159.79,185.45,156.81,184.85,155Z"/><path class="cls-2" d="M498.53,435.59c4.24-.89,5.45,1.16,5.35,5.58a17.27,17.27,0,0,1-19.49,17c-2-.23-3.1-.77-3.22-3C480.59,445.07,486.5,434.64,498.53,435.59Z"/><path class="cls-2" d="M439.35,441c-1.26-5.09,1.85-5.64,6.37-5.54,11.54.26,16.93,10,16.2,20.08-.14,1.94-1.21,2.53-2.94,2.6C449.48,458.58,438.9,453.33,439.35,441Z"/><path class="cls-2" d="M498.29,96.26c4.69-1.14,5.72,1.48,5.59,6.24-.36,12.93-10.85,16.22-20,16.34-1.91,0-2.42-1.11-2.7-2.85C479.52,105.58,487.23,96.3,498.29,96.26Z"/><path class="cls-2" d="M413.26,96.31c5-1.21,6,1.49,5.8,6.23-.34,10.4-9.94,18.32-20.12,16.34-1.89-.37-2.44-1.28-2.59-3C395.44,105.4,403,95,413.26,96.31Z"/><path class="cls-2" d="M190.91,11.44c10.14.08,18.67,10.71,16.54,20.15A2.78,2.78,0,0,1,204.94,34c-11.46,2.49-22.42-8.43-20.07-20C185.74,9.8,189,12.16,190.91,11.44Z"/><path class="cls-2" d="M105.76,11.44a17.3,17.3,0,0,1,16.9,19.77c-.29,1.75-.9,2.53-2.73,2.86-11.25,2-21.59-8.23-19.94-19.67C100.63,10,103.82,12,105.76,11.44Z"/><path class="cls-2" d="M15.2,441.14c-1-4.52,1.26-5.76,6.16-5.69,10.93.17,17.12,9.11,16.46,19.84-.11,1.77-.81,2.56-2.66,2.9C25.34,460,15.25,451.77,15.2,441.14Z"/><path class="cls-2" d="M413.14,435.59c1.62.46,4.81-1.25,5.47,1.64,1,4.39,1.15,9.25-1.66,13-4.31,5.81-10.55,8.13-17.76,7.89-1.8-.06-2.67-.84-2.83-2.71C395.5,445.05,402.47,435,413.14,435.59Z"/><path class="cls-2" d="M105.65,75.88c-4.33,1-5.58-1-5.77-5.71-.4-9.93,8.59-17.5,19.56-16.89,2,.11,3.07.77,3.22,2.94C123.4,66.88,116.16,76.65,105.65,75.88Z"/><path class="cls-2" d="M503.79,410.08c.87,4.12-1.2,5.35-5.6,5.21a17.42,17.42,0,0,1-17-19.49c.23-2,.81-2.92,2.94-3.24C494.73,390.93,503.87,398.76,503.79,410.08Z"/><path class="cls-2" d="M74.19,96.28c5-1.24,5.7,1.77,5.56,6.34-.32,10.35-10,18.27-20.13,16.26-1.9-.38-2.46-1.29-2.56-3C56.42,104.89,62.95,95.94,74.19,96.28Z"/><path class="cls-2" d="M159.07,96.28c4.53-1.08,5.58,1.35,5.52,5.89-.18,12.74-10,16.39-19.69,16.7-2.14.07-2.92-1-3-3.1C141.29,104.54,148.1,95.85,159.07,96.28Z"/><path class="cls-2" d="M184.85,102.17c0-5.64,5.59-8.16,12-5.42s11.44,11.65,10.62,19c-.23,2-.85,3.2-3,3.14C194.84,118.58,184.78,115,184.85,102.17Z"/><path class="cls-2" d="M243.85,96.26c4.74-1.16,6,1.55,5.5,6.26-1.2,12.36-9.33,16.1-19.53,16.34-2.09,0-2.86-.92-3.16-3C225.18,105.3,232.7,96.3,243.85,96.26Z"/><path class="cls-2" d="M269.68,101.74c-1.17-4.8,1.6-5.66,6.29-5.57,11.24.22,17,9.58,16.32,20-.13,1.89-1,2.73-2.83,2.69C280,118.65,269.7,115.19,269.68,101.74Z"/><path class="cls-2" d="M311.52,113c.05-10.85,8.91-18.24,19.58-16.75,2.07.29,2.92,1,3.06,3.13.91,13.83-8.46,19.54-19.85,19.42C309.89,118.73,312.2,114.86,311.52,113Z"/><path class="cls-2" d="M269.75,356.8c-1-4.52.74-6.37,5.92-6.17,10.17.39,18.28,9.81,16.64,19.88-.29,1.75-.86,2.64-2.74,2.84C278.62,374.55,267.91,365.53,269.75,356.8Z"/><path class="cls-2" d="M74.39,350.74c4.57-1.1,5.52,1.53,5.34,6C79.32,367,69.87,375,59.9,373.37c-1.74-.29-2.53-.89-2.86-2.72C55.14,360.22,63.11,350.71,74.39,350.74Z"/><path class="cls-2" d="M20.7,350.76c11.08-.37,17.72,8.46,17.13,19.54-.11,2.1-1,2.83-3.07,3.1a17.37,17.37,0,0,1-19.65-16.85C15,351.86,16.35,349.74,20.7,350.76Z"/><path class="cls-2" d="M184.85,186.53c-1-4.28,1.15-5.4,5.8-5.58,9.95-.4,17.47,8.67,16.84,19.6-.12,2-.87,2.9-3,3.2A17.33,17.33,0,0,1,184.85,186.53Z"/><path class="cls-2" d="M419,356.22a17.38,17.38,0,0,1-19.77,17.17c-2.17-.34-2.76-1.33-2.86-3.31-.59-11,7-19.9,16.9-19.49C418,350.78,419.92,352.05,419,356.22Z"/><path class="cls-2" d="M439.33,155.38c0-11.28,9.71-19.32,20-17.28,1.86.37,2.37,1.25,2.63,2.95,1.47,9.67-6.44,19.2-16.23,19.72C441.26,161,438.08,160.43,439.33,155.38Z"/><path class="cls-2" d="M106.57,265.91c9.63,0,18.18,10.83,16.07,20.21-.43,1.93-1.49,2.23-3.13,2.43-10.14,1.26-19.39-6.41-19.48-16.25C100,265.91,100,265.91,106.57,265.91Z"/><path class="cls-2" d="M451.19,509.84c11.2-3.57,17.14-10.94,20.34-21.28,1.69,4.79,3.46,9.32,7.06,12.93s7.27,7,12.54,8.35Z"/><path class="cls-2" d="M112.69,509.86c10.4-4.15,16.49-10.74,19.73-22.06,2.13,11.78,9.63,17.82,19.78,22.06Z"/><path class="cls-2" d="M367.75,509.86c9.27-4.64,16.93-10.29,18.68-22.57C389.69,499,396.19,506,407,509.86Z"/><path class="cls-2" d="M196.76,509.82c11.16-3.59,17.14-10.94,20.35-21.51,2.46,11.12,9.5,17.54,19.7,21.51Z"/><path class="cls-2" d="M302,488.37c2.44,11.11,9.57,17.56,20.18,21.6h-41.1a28.7,28.7,0,0,0,13.68-8.31C298.36,497.91,300.26,493.38,302,488.37Z"/><path class="cls-2" d="M27.06,509.88c11.12-3.51,17.21-11,20.34-21.21,3.28,10.45,8.13,15.92,19.23,21.21Z"/><path class="cls-2" d="M151.11,1.68c-9.11,4.88-16.91,10.4-18.7,21.69-3.13-10.3-8.81-17.7-18.74-21.69Z"/><path class="cls-2" d="M5.26,318.07V277.4C8.88,288.9,16.33,295,27,298.24,16,300.32,9.91,307.59,5.26,318.07Z"/><path class="cls-2" d="M471.59,22.62C468.52,12.24,462,5.95,451.52,1.68h38.86a46.84,46.84,0,0,0-11.7,8.2A28.77,28.77,0,0,0,471.59,22.62Z"/><path class="cls-2" d="M66.63,1.62C57.16,6.14,50.37,12.14,47.5,22.44,44,12.68,38.33,5.58,27.71,1.62Z"/><path class="cls-2" d="M217.15,23.71c-3-10.89-8.6-17.2-19.43-22.05h38.6C226.73,6.15,219.21,12,217.15,23.71Z"/><path class="cls-2" d="M322.09,1.59c-11,4.51-17.9,10.8-20.1,21.71C299,13,293,5.85,282.27,1.59Z"/><path class="cls-2" d="M406,1.65c-10.19,4.41-16.68,11-19.48,22.23-2.1-11.52-8.9-17.87-20-22.23Z"/><path class="cls-2" d="M5.2,64.16V24.48c4.72,9.07,10.41,16.33,21.13,19.06C15.75,47.13,8.83,53.47,5.2,64.16Z"/><path class="cls-2" d="M5.24,233.28V194c4.49,10,11.23,16.55,22.08,19.32C16,215.48,9.92,222.79,5.24,233.28Z"/><path class="cls-2" d="M5.39,364.57C11.7,375.6,16.84,380.07,27,383c-11.15,2.48-17.6,9.52-21.57,19.74Z"/><path class="cls-2" d="M26,467.78c-12,5.46-15.77,8.94-21,20V446.39C8.59,458.11,15.86,464,26,467.78Z"/><path class="cls-2" d="M5,107.21c3.61,11.55,10.79,17.51,21.51,21.43C15.43,131,9.27,137.62,5,147q0-9.55,0-19.1Z"/></svg>