<?xml version="1.0" encoding="utf-8"?>
<!-- Generator: Adobe Illustrator 21.0.0, SVG Export Plug-In . SVG Version: 6.00 Build 0)  -->
<svg version="1.1" id="Layer_1" xmlns="http://www.w3.org/2000/svg" xmlns:xlink="http://www.w3.org/1999/xlink" x="0px" y="0px"
	 width="514px" height="510px" viewBox="0 0 514 510" style="enable-background:new 0 0 514 510;" xml:space="preserve">
<style type="text/css">
	.st0{fill:url(#SVGID_1_);stroke:#000000;stroke-miterlimit:10;}
	.st1{opacity:0.14;fill:url(#SVGID_2_);}
	.st2{opacity:0.14;fill:#F2F2F2;enable-background:new    ;}
</style>
<linearGradient id="SVGID_1_" gradientUnits="userSpaceOnUse" x1="518" y1="-9" x2="-6" y2="515">
	<stop  offset="0" style="stop-color:#FFFFFF"/>
	<stop  offset="0.1289" style="stop-color:#E7E0D1"/>
	<stop  offset="0.2878" style="stop-color:#CDBF9F"/>
	<stop  offset="0.4451" style="stop-color:#B7A475"/>
	<stop  offset="0.5974" style="stop-color:#A78F55"/>
	<stop  offset="0.7435" style="stop-color:#9B7F3E"/>
	<stop  offset="0.8807" style="stop-color:#937630"/>
	<stop  offset="1" style="stop-color:#91732B"/>
</linearGradient>
<rect x="-6" y="-9" class="st0" width="524" height="524"/>
<title>confirm-01-01</title>
<linearGradient id="SVGID_2_" gradientUnits="userSpaceOnUse" x1="519.3392" y1="-16.6978" x2="-0.8544" y2="503.5058" gradientTransform="matrix(1 0 0 -1 0 510)">
	<stop  offset="0" style="stop-color:#B3B3B3"/>
	<stop  offset="2.000000e-02" style="stop-color:#E6E6E6"/>
	<stop  offset="1" style="stop-color:#FFFFFF"/>
</linearGradient>
<path class="st1" d="M514,148.3v45.2c-2.6,10.9-10.7,18.8-20.4,20c-0.8,0,0.5,0.9,0,0.3c-0.2-0.3-0.1-0.4,0.4-0.4
	c8.2,0.1,16.8,7.4,18.9,16c0.4,1.6,0.1,3.4,1.1,4.9v44.1c-2.8,11.7-10.9,19.1-21.7,20c9.9-0.7,17.7,6.3,21.7,19.6v45.2
	c-0.8,7.5-5.6,12.4-11.1,16.7c-3.1,2.4-6.8,4-11,2.8c11.4,0,20.8,10.6,22.1,20.1v44.1c-2.3,12.1-11.8,21.4-20.9,20.3
	c11.5,2.2,18.3,9.1,20.9,20.4c0,14.1-0.1,28.3,0.1,42.4c0,2.4-0.4,3.3-2.9,2.9c-0.9-0.1-1.9-0.1-2.8,0c-166.4,0-332.8,0-499.2,0.1
	c-4.8,0-5.4-1.2-5.4-5.6C3.9,353.3,3.9,179.1,3.8,5c0-3.8,0.4-5,4.8-5c166.9,0.2,333.9,0.2,500.8,0c3.9,0,4.9,0.8,4.6,4.7
	c-0.4,6.3-0.1,12.8-0.1,19.2c-2.7,11.3-10.8,19-21.1,20c-0.7,0.1,0.1,1.2-0.1,0.5c-0.1-0.3,0-0.5,0.2-0.5c7.3-0.8,17.7,7.2,20,15.2
	c0.4,1.4,0,3,1,4.3v44.1c-1.1,12.2-11.3,19.8-21,21.3c-0.7,0.2,0.3,0.9-0.1,0.3c-0.2-0.3-0.1-0.5,0.3-0.5
	c7.8-0.8,17.3,6.6,19.8,15.4C513.3,145.4,513,147,514,148.3z"/>
<path class="st2" d="M514,317.9c-2.8-3.7-4.1-8.2-7.5-11.7c-4-4-8.1-7.1-15.3-7.9c12-3.1,18.7-10.2,22.9-20V317.9z"/>
<path class="st2" d="M514,487.6c-4.5-9.4-10.2-17.4-22.1-19.7c11.5-3.3,18.7-10.3,22.1-21V487.6z"/>
<path class="st2" d="M514,63.5c-4.5-9.5-10.2-17.5-22.3-19.7c11.3-3,18.1-10.1,22.2-19.9L514,63.5z"/>
<path class="st2" d="M514,234.2c-3.2-6-5.1-12.8-11.5-16.8c-3.1-1.9-6.4-3-10.7-4.1c11.3-3,18.1-10.1,22.2-19.9V234.2z"/>
<path class="st2" d="M514,402.8c-2.2-3.6-3.5-7.7-6.7-10.9c-4.2-4.2-8.5-7.9-14.9-8.7c11-2.8,17.3-10.3,21.7-20L514,402.8z"/>
<path class="st2" d="M514,148.3c-4.3-9.8-9.9-18-23.4-19.7c12.9-3.2,20-10.3,23.4-21V148.3z"/>
<path class="st2" d="M366.1,213.2c-10.9,3.1-18.1,9.6-21.7,21.5c-1.8-5.8-4.2-10.2-8-13.7s-8-6.7-15.2-7.5
	c12.1-3.4,19.7-9.6,22.9-22C347.9,203.4,355.1,210.2,366.1,213.2z"/>
<path class="st2" d="M321.5,468c11.7-3.2,17.6-8.8,23-21c3.2,11.2,10.7,17.4,21.9,20.9c-11.5,2.6-18.3,9.6-22,20.9
	C340.4,478.1,334.2,470.3,321.5,468z"/>
<path class="st2" d="M471.5,194.2c-2.2-13-10.1-19.1-20.9-23.6c11.5-3.3,17.9-10.7,21-21.4c3.3,10.5,9.3,18.2,21.3,21.3
	c-5.7,2.5-10.1,5-13.9,8.7C474.9,183,473.2,187.6,471.5,194.2z"/>
<path class="st2" d="M322.1,383.2c11-3.5,18.8-9.6,22.1-21.7c3.4,11.3,10.6,17.7,21.5,21.5c-11.1,3.1-17.8,10-21.3,21.3
	c-1.6-5.2-4.3-10-8.1-13.9C332.4,386.4,327.8,384.6,322.1,383.2z"/>
<path class="st2" d="M197.1,382.9c-11.4,3.1-14.4,5.8-22.7,20.1c-4.2-9.8-10-17.7-22.2-19.7c11.2-3.5,18.9-9.6,22.2-21.3
	C179,372.3,184.8,380.5,197.1,382.9z"/>
<path class="st2" d="M344.3,150.1c-2.7-10.5-10.9-18.8-21.3-21.7c10.7-3.5,18.1-9.7,21.2-22c3.4,12.1,10.5,18.6,21.9,21.9
	C354.6,131.8,347.9,138.6,344.3,150.1z"/>
<path class="st2" d="M344.3,64.8c-3.5-11.5-10.9-18-21.7-21.1c10.5-3.3,18.2-9.4,21.5-21.1c4.1,10.8,10.4,18.6,22.1,21
	C355.1,46.7,348,53.5,344.3,64.8z"/>
<path class="st2" d="M47.6,193.9c-3.3-11.7-5.8-15.4-20.4-23.4c10.9-3.1,16.9-10.9,20.2-21.2c3.2,10.3,9.2,17.9,20.6,21.3
	C58,175.1,49.8,181.1,47.6,193.9z"/>
<path class="st2" d="M89.4,447.2c6.8,13.1,11.4,17.3,22.6,20.9c-11.6,2.4-18.3,9.5-22,20.7c-4.1-10.5-10.3-18.3-21.8-20.8
	C78.4,464.4,86.4,458.7,89.4,447.2z"/>
<path class="st2" d="M471.8,446.1c-3.1-10.8-10.6-16.7-21.4-20.8c11.6-3.5,17.9-10.9,21.1-21.5c3,10.6,9.5,17.7,20.7,21.3
	c-4.2,3-9.3,4-12.7,7.9S472.9,440.5,471.8,446.1z"/>
<path class="st2" d="M174.6,22.8c4.3,10.4,10.1,18.5,21.8,20.8c-11.3,2.6-17.7,10.2-21.7,20.6c-4.6-11.4-10.7-17.1-21.6-20.5
	C163.7,40.8,170.8,34.1,174.6,22.8z"/>
<path class="st2" d="M450.3,43.4c-12.3,5.3-17.6,10.6-20.8,21C425,54.1,418.9,46,406.2,43.6c12.1-2.4,18.5-9.6,22.9-20.3
	C433.1,34,440,40.3,450.3,43.4z"/>
<path class="st2" d="M492.2,255.5c-9.9,4.3-18,10-20.5,22.8c-3.5-12.1-10.5-18.8-21-22.6c11.1-3.8,17.9-10.8,20.8-21.5
	C474.9,244.4,480.9,252.1,492.2,255.5z"/>
<path class="st2" d="M259.4,446.3c3.6,11.6,10.7,17.7,21.2,21.5c-10.8,3.3-17.4,10.3-21.2,20.8c-3.9-10.9-10.3-18.3-22.3-20.5
	C248.2,464.5,255.9,458.5,259.4,446.3z"/>
<path class="st2" d="M429.1,445.7c3.3,12.5,11,18.2,21.4,22.3c-11.1,2.5-17,9.9-21.4,19.8c-4.3-9.8-10.1-17.2-21.7-19.7
	C418.4,464.1,425.9,457.9,429.1,445.7z"/>
<path class="st2" d="M449.6,298.1c-10.9,5-14.2,8.1-20.6,19.8c-4.1-9.5-10-16.8-21.8-19.5c11.4-3.7,18.1-10.6,22-20.8
	C433.5,288.6,437.9,292.9,449.6,298.1z"/>
<path class="st2" d="M344.3,319.6c-3.9-11.7-10.7-18.7-21.6-21.4c10.3-3.3,18.1-9.3,21.5-21.3c3.6,11.2,10.7,17.6,21.3,21.3
	C354.6,301.5,347.9,308.3,344.3,319.6z"/>
<path class="st2" d="M259.3,64.6c-3.4-11.6-11.1-17.7-22.5-21c11.8-2.7,18.7-9.4,22.5-20.5c4.4,9.7,9.5,18.4,21.3,20.4
	C269.6,46.7,263.3,54.1,259.3,64.6z"/>
<path class="st2" d="M68.5,255.5c-10.7,4-18,10.3-21.1,22.5c-2.9-12.2-10-18.8-20.8-22.2c11.2-4.4,13.9-7.2,20.9-21.1
	C51,245,57.1,252.3,68.5,255.5z"/>
<path class="st2" d="M322.2,256c-10.8,3.6-17.2,10.3-20.2,20.9c-4-10.3-9.8-18-21.8-21.1c11-3.8,18.2-10.3,21.6-21.7
	C304.7,245.5,312.3,251.1,322.2,256z"/>
<path class="st2" d="M132.3,446c-3.3-10.5-10.3-16.9-20.9-20.8c11.3-3.5,17.6-10.9,20.9-21.7c2.6,11.2,9.7,17.9,20.6,21.6
	C143.1,429.3,135.2,435.1,132.3,446z"/>
<path class="st2" d="M68.6,425.2c-10.4,4.3-18.5,9.6-20.8,22c-3.9-11.2-10.2-18.5-21.5-21.9c11.4-3.8,18.1-10.8,21.1-21.6
	C50.5,414.4,56.9,421.6,68.6,425.2z"/>
<path class="st2" d="M89.6,192.1c4,11.5,11.2,18.2,22,21.2c-7.2,2.4-11.7,2-21.9,19.6c-4.3-9.8-10.5-17.3-21.6-19.5
	C78.4,210,86.2,204.2,89.6,192.1z"/>
<path class="st2" d="M238.5,298.2c9.9-4,17.6-9.5,20.6-21.2c4,10.7,10.7,17.6,21.6,21.1c-11.1,3.2-17.5,10.4-21.3,20.6
	C255.3,307.9,250.8,303.4,238.5,298.2z"/>
<path class="st2" d="M197,467.9c-11.9,2.3-18.7,9.4-22.2,21c-4.1-11.1-10.4-18.6-22.2-20.8c10.7-3.8,18.6-9.5,21.9-21.7
	C178.4,457.8,185.4,464.9,197,467.9z"/>
<path class="st2" d="M386.6,402.5c3.3,12,9.8,18.8,20.9,22.8c-10.2,3.8-17.2,10.3-20.7,21.1c-3.2-10.8-10.4-17.2-20.8-21.1
	C376.8,421.3,384.3,415,386.6,402.5z"/>
<path class="st2" d="M450.7,213.6c-11.5,2.8-17.8,9.9-21.2,20.9c-4.3-10.5-10.4-18.1-21.6-21.1c10.8-3.5,17.5-10.2,21.4-21.1
	C432.5,203.6,440.1,209.6,450.7,213.6z"/>
<path class="st2" d="M196.8,213.2c-12.1,3.4-15.2,6.3-22.3,20.4c-3.5-10.2-10.1-17.2-20.8-20.3c10-4,17.7-9.5,20.6-21
	C178.8,202.9,185.3,210.6,196.8,213.2z"/>
<path class="st2" d="M132.5,233.6c2.5,11.4,9.4,18.4,21.4,22c-12.4,3.5-18.9,10.8-21.7,22c-2.8-11.2-9.9-18-21-22.1
	C123,252.2,129,244.4,132.5,233.6z"/>
<path class="st2" d="M217.1,318.6c2.6,11.5,9.8,17.9,20.6,21.7c-9.9,4.1-17.6,10.1-20.5,21.4c-3.6-10.6-10.2-17.5-21.1-21.3
	C207.5,337,213.9,329.5,217.1,318.6z"/>
<path class="st2" d="M26.5,340.5c11.4-3.8,18-10.9,20.9-21.6c2.9,10.6,9.5,17.6,20.7,21.5c-9.9,4.3-18.4,9.6-20.7,21
	C44.6,350.4,36.8,344.5,26.5,340.5z"/>
<path class="st2" d="M197.2,255.6c10.2-4.4,17.2-11,20-22.7c2.4,12.2,9.6,18.9,21.9,22.7c-12.1,3.3-19.1,9.9-21.7,20.9
	C210.9,263.5,209.6,262.1,197.2,255.6z"/>
<path class="st2" d="M217.2,192.4c-3.3-11.4-10.5-17.7-21.4-21.8c11.8-3.3,18.1-10.8,21.4-22c2.7,11.4,9.4,18.5,21.5,22.1
	C227.1,174.4,219.8,180.6,217.2,192.4z"/>
<path class="st2" d="M68.9,298.2c12.4-5.3,17.6-10.5,20.7-21.2c3.8,10.8,10.8,17.5,21.6,21.1c-10.9,2.9-17,10-21.3,20
	C85.6,308.4,79.5,301.2,68.9,298.2z"/>
<path class="st2" d="M153.2,340.3c-10.3,4.2-18.2,9.7-20.7,21.7c-3.8-10.9-10.3-17.9-21.7-21.6c11.8-3.1,17.5-10.8,21.5-21
	C135.8,329.9,141.9,337,153.2,340.3z"/>
<path class="st2" d="M174.6,319.3c-3.9-11.4-10.4-18.4-21.7-21.2c5-1.8,9.6-3.7,13.3-7.4s6.9-7.4,8.1-13.1
	c3.9,10.6,11.3,17.4,22.5,20.6C185,300.4,178.4,307.8,174.6,319.3z"/>
<path class="st2" d="M111.4,43.7C100.2,46.8,94.3,54,90,63.5c-4.8-8.9-10-17.1-21.3-19.5C79,40,86.3,34,89.5,23
	C93.8,32.8,99.7,40.7,111.4,43.7z"/>
<path class="st2" d="M386.6,148.3c3.2,11.7,9.9,18.7,21.1,22.4c-10.5,3.9-17.6,10.5-20.8,21.1c-5.4-13.5-7.9-15.5-20.9-21.2
	c5.1-1.4,9.7-4.2,13.4-8C383.1,158.9,385.2,154.5,386.6,148.3z"/>
<path class="st2" d="M302.1,192.5c-3.8-10.9-10.1-18-21.5-21.7c11.6-3.8,18.5-10.7,21.3-21.8c3,11,9.7,18.1,21.5,22
	C311.7,174.1,304.6,180.6,302.1,192.5z"/>
<path class="st2" d="M471.6,319.7c3.6,10.3,9.8,17.3,20.7,20.6c-9.9,4.2-17.7,10.2-20.7,21.8c-3.1-11.3-10.3-17.7-21-21.7
	C461.6,337,467.9,330,471.6,319.7z"/>
<path class="st2" d="M153.3,128.4c10.5-3.6,17.9-9.6,21.2-20.9c4,11,11,18,22.7,21.1c-12.5,1.9-18.8,9.7-22.5,20.9
	C170.9,138.5,164.3,131.7,153.3,128.4z"/>
<path class="st2" d="M111.5,383.1c-11.5,2.8-17.8,9.5-21.4,20.2c-4.7-9.8-10.4-17.6-21.8-20c10.6-4.1,18.3-9.9,21.3-21.5
	C93.7,372.2,99.8,379.6,111.5,383.1z"/>
<path class="st2" d="M280.8,383.6c-11.9,1.8-17.6,9.7-21.3,20.3c-4-11.1-10.6-18.3-21.7-20.8c10.4-3.4,18.2-9.3,21.2-20.4
	C267.3,378.2,270.4,378,280.8,383.6z"/>
<path class="st2" d="M281.3,128.4c-12.1,2.9-18.6,10-21.8,21.5c-3.8-11.3-10.4-18.1-21.3-21.4c10-4,18-9.4,20.8-21.7
	C263.1,118.2,269.9,125.1,281.3,128.4z"/>
<path class="st2" d="M429.5,362c3,11.4,10.7,17.1,20.5,21c-10.6,3.2-17.1,10-20.8,20.9c-3.7-10.6-9.4-18.5-21.3-20.4
	C421.1,376.7,424.1,373.8,429.5,362z"/>
<path class="st2" d="M386.7,318.9c3.3,10.4,9.4,18,20.1,21.2c-14.3,8.9-15.2,9.9-20.3,21.6c-2.5-11.5-9.9-17.6-21-21.2
	C377.1,336.8,383.8,329.7,386.7,318.9z"/>
<path class="st2" d="M302.1,447c-3.9-10.8-10.1-18.1-21.2-21.6c11.5-3.6,17.9-11,21.1-22c2.3,11.7,10,17.6,20.8,22
	C312.2,428.9,304.5,434.9,302.1,447z"/>
<path class="st2" d="M367.3,256c15.2-11.9,15.2-11.9,19.5-21.1c3.9,9.7,9.4,17.6,21.6,20.6c-11.3,3.7-18.6,10.1-21.5,21.9
	C383.8,266.1,376.6,260.1,367.3,256z"/>
<path class="st2" d="M302,318.6c2.6,11.4,9.8,17.9,20.9,21.8c-10.4,3.8-18.5,9.4-20.6,21.9c-4.1-10.9-10.1-18.3-21.6-21.8
	C292.4,337,298.6,329.6,302,318.6z"/>
<path class="st2" d="M217.3,447.2c-3.9-11.1-10.3-18.3-21.7-22c11.9-3,17.5-10.7,21.5-20.9c3.2,10.7,9.9,17.5,21,21
	C227.3,429,219.6,434.9,217.3,447.2z"/>
<path class="st2" d="M132.3,192.4c-2.3-11.4-10-17.6-21.2-21.6c11.7-3.5,17.9-11,21.1-21.5c3,10.7,9.6,17.8,20.7,21.5
	C142.7,175,134.4,180.6,132.3,192.4z"/>
<path class="st2" d="M281.4,213.5c-12.5,2.6-18.3,10.1-22,20.8c-3.8-10.7-9.9-17.8-21.3-20.7c10.1-4.2,18-9.6,20.9-21.3
	C263.3,202.7,269.6,210.1,281.4,213.5z"/>
<path class="st2" d="M47.2,64.3c3.5,11.9,11.8,18.8,21.6,21.8c-11,3.3-18.5,9.3-21.1,21.5c-3.3-10.9-10.1-17.3-20.3-21.4
	C37.2,82,44.1,75.7,47.2,64.3z"/>
<path class="st2" d="M238,86.3c-11.8,3.4-18.1,10-20.8,21.2c-3.4-11.3-10.4-17.8-21.3-21.7c11.6-3.1,17.4-10.8,21.3-21
	C219.9,75.8,227.3,81.7,238,86.3z"/>
<path class="st2" d="M408.5,128.4c10.4-3.6,17.2-10.1,20.6-21.2c3.4,11.1,10.2,17.6,21.5,21c-11.1,3.1-17.8,9.6-21.4,20.1
	C425.6,138,419.1,131.1,408.5,128.4z"/>
<path class="st2" d="M386.6,64.8c3.7,10.2,9.5,17.3,20.2,21c-9.7,4.6-17.3,10.5-20,21.2c-5-12.5-5-12.5-19.7-21.1
	C376.6,81.8,383.9,75.7,386.6,64.8z"/>
<path class="st2" d="M67.6,128.6c11.7-3.8,19-9.9,22.2-21.6c3.4,11.4,10.7,17.7,21.6,21.6c-11.3,2.5-17.9,9-21.3,21.1
	C85.9,138.3,80,130.9,67.6,128.6z"/>
<path class="st2" d="M492.9,85.9c-11,4-19,9.3-21,21c-3-11-10.2-17.3-21.6-20.9c11-3.8,18.3-10,21.2-21
	C475.2,75.3,481.3,82.6,492.9,85.9z"/>
<path class="st2" d="M302.1,107.7c-3.4-11.3-10.3-17.9-21.4-21.7c11.3-3.2,17.3-10.5,21.2-21c3,10.6,9.3,17.4,19.7,21.2
	C311.4,89.6,304.5,96.1,302.1,107.7z"/>
<path class="st2" d="M132.5,64.1c2.6,11.8,9.8,17.6,20.5,22.2c-11.2,3.3-18.1,9.8-20.8,20.7c-2.2-11-9.4-16.9-20.4-20.8
	C122.2,82.2,128.7,75.4,132.5,64.1z"/>
<path class="st2" d="M334.1,155.3c1.2,4.8-1.6,5.6-6,5.5c-10.6-0.4-18-9.1-16.6-19.6c0.3-2,1-2.8,3.1-3.1
	C325.6,136.5,335.4,145.5,334.1,155.3z"/>
<path class="st2" d="M462,368.1c1.1,4.6-1.6,5.6-6,5.2c-10.9-0.8-17.5-8.3-16.6-19c0.2-2.1,0.6-3.3,3.1-3.7
	C453.3,349.2,462,356.7,462,368.1z"/>
<path class="st2" d="M361,96.3c10.3,0,18.3,10.4,16.1,20.1c-0.3,1.5-0.9,2.3-2.5,2.4c-12.1,1.3-21.6-7.2-20-20
	C355.2,94.3,359.2,97.2,361,96.3z"/>
<path class="st2" d="M184.9,356.4c-0.9-4.2,0.8-5.6,5.6-5.8c11.5-0.4,17.5,9.5,16.9,19.8c-0.1,1.7-0.6,2.8-2.6,3
	C195.2,374.1,184.1,368.5,184.9,356.4z"/>
<path class="st2" d="M31.7,222.9c6.2,0,6.8,0.6,6.1,6.7c-1.2,10.6-8.8,16.9-19.1,15.9c-1.8-0.2-3.1-0.4-3.5-2.7
	c-1.8-9.1,4.1-17.8,13.1-19.6C29.4,223,30.6,222.9,31.7,222.9z"/>
<path class="st2" d="M269.7,408.9c0-10.3,9.7-18.1,19.9-16.4c1.8,0.3,2.7,1,2.7,2.8c0.4,11.1-5.6,21.4-19.7,19.8
	C267.8,414.6,270.5,410.9,269.7,408.9z"/>
<path class="st2" d="M249.3,70.3c1.2,4.8-1.5,5.5-6.1,5.8c-9.3,0.6-18.2-9-16.4-20.2c0.3-1.9,1.2-2.5,3-2.6
	C240.3,52.5,250,59.8,249.3,70.3z"/>
<path class="st2" d="M73.2,435.6c6.5,0,8.5,2.9,6.1,10.3c-3,9.7-10.2,12.5-19.6,12.3c-1.9,0-2.5-1.1-2.7-2.8
	C56.1,445.3,63.4,434,73.2,435.6z"/>
<path class="st2" d="M106,435.6c11.7-0.8,17.3,10.1,16.6,20c-0.2,1.9-1.1,2.6-2.9,2.6c-11.3,0.4-21.4-5.6-19.7-19.7
	C100.4,435.6,100.6,435.6,106,435.6z"/>
<path class="st2" d="M503.8,324.9c1.1,4.6-1.3,5.6-5.8,5.6c-11.4,0-17.5-9.5-16.7-20c0.1-1.9,1-2.5,2.8-2.7
	C494.4,306.6,504.9,313.9,503.8,324.9z"/>
<path class="st2" d="M226.7,27.9C226.8,17.1,237,9,246.9,11.5c1.3,0.1,2.4,1.2,2.4,2.6c1.1,13.7-7.5,20.8-20,19.9
	C225,33.6,227.4,29.8,226.7,27.9z"/>
<path class="st2" d="M191,330.4c-6,0-8.6-5.8-5.5-12.3c3.4-7,10.8-11.1,18.5-10.3c1.9,0.2,3.3,0.4,3.4,2.7
	C208,319.6,203.1,330.7,191,330.4z"/>
<path class="st2" d="M164.5,324.8c1.1,4.6-1.3,5.8-6.2,5.7c-11.2-0.2-17.1-9.4-16.4-20c0.1-1.8,1-2.5,2.8-2.8
	c9.3-1.6,18,4.7,19.6,13.9C164.4,322.7,164.5,323.8,164.5,324.8z"/>
<path class="st2" d="M62.9,307.8c9.3-0.2,16.9,7.2,17,16.5c0,1.1-0.1,2.1-0.3,3.2c-0.3,1.7-0.8,2.7-2.7,2.9
	c-14,1.9-20.6-9.1-19.9-19.7C57.4,306.2,61,308.4,62.9,307.8z"/>
<path class="st2" d="M249.3,494.5c1.1,4.8-1.5,5.8-6.2,5.6c-9.4-0.2-16.9-8.1-16.6-17.5c0-0.8,0.1-1.7,0.2-2.5
	c0.3-1.8,1-2.6,2.9-2.7C240.2,476.7,249.5,482.8,249.3,494.5z"/>
<path class="st2" d="M354.5,494c0-9.3,7.5-16.8,16.9-16.8c0.9,0,1.9,0.1,2.8,0.2c2.1,0.3,2.9,1.2,3,3.2c0.5,11.5-6.4,20.2-18.6,19.5
	C353.6,499.9,354.6,496.8,354.5,494z"/>
<path class="st2" d="M328.4,500c-9.3,0.2-17-7.3-17.1-16.6c0-1,0.1-2,0.2-3c0.2-1.7,0.7-2.6,2.6-3c11.3-2.4,22.7,9.1,20,20.2
	C333.2,501.4,330.2,499.4,328.4,500z"/>
<path class="st2" d="M105.4,245.5c-4.6,1.1-5.6-1.4-5.5-5.9c0-9.4,7.7-17,17.1-16.9c0.9,0,1.7,0.1,2.6,0.2c2.1,0.3,3,1,3.1,3.1
	C123.2,237.1,116.5,246,105.4,245.5z"/>
<path class="st2" d="M164.5,240.1c1.1,4.6-1.4,5.8-5.9,5.6c-12.5-0.8-17-9.3-16.7-19.7c0.1-2.2,1.2-2.8,3.2-3
	C155.4,221.9,165.6,229.3,164.5,240.1z"/>
<path class="st2" d="M191.1,245.6c-5.9,0-8.4-5-5.9-11.8c2.7-7,11.7-12,19.3-10.9c1.7,0.3,2.8,0.7,2.9,2.7
	C208,234.5,203.2,245.8,191.1,245.6z"/>
<path class="st2" d="M328.6,245.5c-11.2,1.2-18.4-10.7-17-19.9c0.3-1.9,1.2-2.4,2.9-2.7c11.5-1.8,21.1,7.9,19.7,19.5
	C333.6,247.4,329.9,244.6,328.6,245.5z"/>
<path class="st2" d="M444.9,245.6c-4.8,1.1-5.8-1.5-5.6-6.2c0.2-9.4,8.1-16.9,17.5-16.6c0.8,0,1.7,0.1,2.5,0.2
	c1.8,0.3,2.6,1,2.7,2.9C462.6,236.4,456.5,245.8,444.9,245.6z"/>
<path class="st2" d="M327.7,265.9c6.4,0,8.1,2.9,6.2,10.4c-2.1,8-11.4,13.8-19.7,12.2c-1.3,0-2.4-1-2.6-2.3
	C309.1,276.4,317.4,265.9,327.7,265.9z"/>
<path class="st2" d="M190.5,265.9c12.1-0.8,17.7,10.2,16.9,20c-0.1,1.9-1.2,2.5-2.9,2.6c-8.8,0.7-20.5-5-19.8-17
	C185,266.8,186.3,265,190.5,265.9z"/>
<path class="st2" d="M360,415.2c-4.8,1.2-5.4-1.6-5.7-6.3c-0.7-10.5,10.8-17.6,20-16.4c1.9,0.3,2.6,1,2.7,2.8
	C377.8,406.1,371.7,415.4,360,415.2z"/>
<path class="st2" d="M334.1,409.7c1.2,4.8-1.6,5.7-6.3,5.6c-9.4-0.3-16.9-8.1-16.6-17.5c0-0.8,0.1-1.6,0.2-2.5
	c0.3-1.8,1.1-2.4,2.9-2.7c9.4-1.4,18.2,5.1,19.6,14.6C334.1,408,334.2,408.9,334.1,409.7z"/>
<path class="st2" d="M244.1,415.2c-11.1,0-18.6-8.6-17.4-19.4c0.3-2.4,1.2-3.1,3.5-3.3c10.7-1,19,6.6,19.3,17.1
	C249.5,414.3,248,416,244.1,415.2z"/>
<path class="st2" d="M158.7,415.2c-11.4,0.2-17.5-9.1-16.8-19.8c0.1-1.8,0.9-2.7,2.7-2.8c11.1-0.5,21.6,5.4,19.9,19.7
	C164,416.7,160.6,414.6,158.7,415.2z"/>
<path class="st2" d="M503.8,17c0.8,11.9-9.8,17.7-19.8,17c-1.8-0.1-2.5-1-2.8-2.8c-2-11.2,8.1-21.4,19.6-19.8
	C505.1,12,503.3,15.1,503.8,17z"/>
<path class="st2" d="M249.3,441.7c0.4,12-10.7,17-19.9,16.5c-1.9-0.1-2.6-1-2.8-2.8c-1.1-10.6,6.1-21.9,19.7-19.8
	C249.3,436.1,249.3,436.1,249.3,441.7z"/>
<path class="st2" d="M328.6,350.7c4.5-1,5.9,1.2,5.7,6.1c-0.5,10.6-9.3,18-19.8,16.5c-1.7-0.2-2.6-0.8-2.9-2.6
	c-1.7-9.2,4.4-18,13.6-19.7C326.2,350.8,327.4,350.7,328.6,350.7z"/>
<path class="st2" d="M100,494c0-10.8,11.1-19.2,20.4-16.5c1.3,0.3,2.2,1.5,2.2,2.8c0.8,10.2-6,19.8-16,19.9
	C101.2,500.2,98.8,498.7,100,494z"/>
<path class="st2" d="M159,350.7c4.8-1.2,5.6,1.6,5.6,6.3c-0.1,12.2-11.4,16.9-20.1,16.3c-2-0.1-2.4-1.3-2.6-3
	c-1.5-9.2,4.8-17.9,14-19.4C156.9,350.8,157.9,350.7,159,350.7z"/>
<path class="st2" d="M100,356.2c-1.2-5,1.7-5.5,6.3-5.6c11.2-0.2,17,10.1,16.3,20c-0.1,1.9-1.1,2.6-2.9,2.7
	C109,374,99.8,367.8,100,356.2z"/>
<path class="st2" d="M249.3,155.1c1.3,5.1-1.7,6-6.3,5.6c-12-1-16.4-8.9-16.3-19.6c0-2.1,1-2.9,3.1-3.1
	C240.2,137,250.3,144.4,249.3,155.1z"/>
<path class="st2" d="M419,323.4c0,7.1,0,7.2-7.1,7c-12.2-0.4-16.1-12.2-15.4-20.3c0.1-1.2,0.9-2.1,2.1-2.3
	C407.8,305,418.9,313.5,419,323.4z"/>
<path class="st2" d="M360,330.4c-4.1,0.9-5.7-0.9-5.6-5.7c0.1-9.5,7.8-17.1,17.3-17.1c0.7,0,1.5,0.1,2.2,0.2c2,0.2,2.9,0.8,3.2,3
	c1.5,9.3-4.9,18-14.1,19.4C362,330.3,361,330.4,360,330.4z"/>
<path class="st2" d="M243.3,330.4c-9.3,0-16.8-7.5-16.9-16.7c0-1,0.1-1.9,0.2-2.9c0.2-1.7,0.7-2.8,2.6-3
	c12.7-0.8,21.7,7.1,19.9,20.2C248.9,330.4,248.6,330.4,243.3,330.4z"/>
<path class="st2" d="M73.9,500c-10.7,0.7-17.7-9.4-16.8-19.8c0.2-1.9,1-2.7,2.8-2.8c11.3-0.4,21.5,5.6,19.8,19.8
	C79.1,501.6,75.7,499.4,73.9,500z"/>
<path class="st2" d="M361,435.6c10.3,0,18.5,10.7,16.1,20.3c-0.5,2-1.6,2.1-3.2,2.3c-9.4,1.3-18.1-5.4-19.4-14.8
	c-0.2-1.5-0.2-3,0-4.6C355,433.6,358.9,436.4,361,435.6z"/>
<path class="st2" d="M328.5,435.6c5.2-1.3,6,1.9,5.7,6.7c-0.9,12.4-10.5,16.1-19.9,15.9c-1.9,0-2.5-1-2.8-2.8
	c-1.5-9.3,4.7-18,14-19.6C326.5,435.6,327.5,435.6,328.5,435.6z"/>
<path class="st2" d="M275.9,435.6c11.4-1,17.2,11,16.5,19.8c-0.2,2.3-1.4,2.7-3.3,2.8c-9,0.5-20.3-5.4-19.4-17
	C270.1,435.6,269.7,435.5,275.9,435.6z"/>
<path class="st2" d="M275.1,265.9c13-0.5,17.2,9.9,17.1,19.8c0,2.3-1.4,2.7-3.3,2.8c-9,0.5-20.1-5.5-19.4-16.8
	C269.8,267.2,270.7,264.9,275.1,265.9z"/>
<path class="st2" d="M439.4,271.5c-1.2-5,1.6-5.8,6.3-5.7c9.4,0.3,16.8,8.1,16.6,17.5c0,0.8-0.1,1.6-0.2,2.5
	c-0.3,1.8-1.1,2.6-2.9,2.7C448.5,289.3,438.6,282.1,439.4,271.5z"/>
<path class="st2" d="M249.3,272c0.2,12.5-11.3,17.1-20.1,16.5c-1.6-0.1-2.2-0.9-2.5-2.4c-2.6-11.4,8.4-22.5,20-20.1
	C251,266.8,248.6,270.1,249.3,272z"/>
<path class="st2" d="M20.8,500c-4.9,1.2-5.9-1.5-5.7-6.2c0.2-9.4,8.1-16.9,17.5-16.6c0.8,0,1.7,0.1,2.5,0.3c1.8,0.3,2.6,1,2.7,2.8
	C38.6,490.8,31.5,500.7,20.8,500z"/>
<path class="st2" d="M445.8,415.2c-6.6,0.1-8-2-6.4-9.9c1.7-8.2,11.7-14.5,20-12.8c1.5,0.3,2.3,0.9,2.5,2.5
	C462.9,404.7,456.6,415.6,445.8,415.2z"/>
<path class="st2" d="M503.8,272.1c-0.1,10-11,18.6-20.2,16.4c-1.5-0.4-2.3-1-2.4-2.6c-0.8-11.8,6.5-22.1,20.1-19.9
	C505.5,266.7,503,270.2,503.8,272.1z"/>
<path class="st2" d="M269.7,493.4c0-10.3,11.1-18.6,20.5-16c1.3,0.2,2.3,1.4,2.1,2.8c0.2,11.5-5.3,20.8-19.4,19.8
	C267.6,499.6,270.6,495.5,269.7,493.4z"/>
<path class="st2" d="M184.9,408.8c0-10.3,10.4-18.4,20.2-16.2c1.9,0.4,2.4,1.4,2.4,3.1c0.1,11-5.1,19.9-18.6,19.6
	C183.2,415.2,185.3,411.3,184.9,408.8z"/>
<path class="st2" d="M105.7,415.2c-4.6,1.1-5.9-1.2-5.8-6.1c0.2-9.4,8-16.9,17.5-16.7c0.8,0,1.6,0.1,2.4,0.2
	c1.8,0.3,2.7,0.9,2.8,2.7C123.2,404.4,118.3,415.5,105.7,415.2z"/>
<path class="st2" d="M79.7,409.7c1.2,4.9-1.6,5.7-6.3,5.6c-11.3-0.2-17-9.7-16.3-20c0.1-1.9,1.1-2.6,2.9-2.7
	C70.7,391.9,79.9,398.2,79.7,409.7z"/>
<path class="st2" d="M184.9,494.6c0-11,9.1-18.7,19.6-17.2c2.1,0.3,2.9,1.1,3,3.2c0.3,9.8-5.2,19.8-16.8,19.6
	C186,500.1,183.9,498.9,184.9,494.6z"/>
<path class="st2" d="M503.8,356.3c0.8,10.6-9,17.8-19.7,17c-2.2-0.2-2.8-1.3-2.9-3.3c-0.5-10.5,5.8-19.9,16.8-19.5
	C502.6,350.8,504.8,351.9,503.8,356.3z"/>
<path class="st2" d="M360.9,350.7c10.4,0,18.6,10.6,16.2,20.3c-0.2,1.3-1.3,2.3-2.6,2.3c-11.1,2.1-21.9-8.7-20-19.9
	C355.4,348.8,359,351.7,360.9,350.7z"/>
<path class="st2" d="M226.7,367.5c-0.1-9.3,7.3-16.9,16.6-17c1.1,0,2.1,0.1,3.1,0.3c1.7,0.3,2.6,0.8,2.9,2.7
	c2.1,11-8.6,21.9-19.8,20C225.1,372.6,227.4,369.4,226.7,367.5z"/>
<path class="st2" d="M439.3,324.9c-0.2-9.4,7.3-17.2,16.6-17.3c1,0,2,0,3,0.2c2.1,0.3,2.8,1.2,2.9,3.2c0.6,11-6.9,20-16.9,19.6
	C440.2,330.4,438.4,329,439.3,324.9z"/>
<path class="st2" d="M20.6,330.4c-4.3,1-5.3-1.2-5.6-5.8c-0.6-10.8,9.7-18,20-16.8c1.8,0.2,2.5,1,2.8,2.8
	C39.5,320.6,31.4,330.4,20.6,330.4z"/>
<path class="st2" d="M328.5,330.4c-9.4,0.1-17.1-7.4-17.2-16.8c0-1.1,0.1-2.1,0.2-3.1c0.3-1.8,1.1-2.5,2.9-2.8
	c9.8-1.6,19.2,6,19.8,16C334.5,328.5,333.6,331.7,328.5,330.4z"/>
<path class="st2" d="M275.5,330.4c-5.7,0-8.1-6.4-4.9-12.6c3.4-6.8,10.6-10.8,18.1-10c2.1,0.2,3.7,0.5,3.6,3.1
	C292,320.6,288.2,330.5,275.5,330.4z"/>
<path class="st2" d="M243.7,181.1c5.1-1.3,6.1,1.8,5.7,6.6c-0.9,12.4-10.4,16.1-19.9,16c-1.9,0-2.5-1-2.8-2.8
	c-1.6-9.3,4.7-18,13.9-19.6C241.6,181.2,242.6,181.1,243.7,181.1z"/>
<path class="st2" d="M328.7,75.9c-11.1,0-18.6-8.8-17.2-19.5c0.3-2,0.9-2.9,3-3.2c9.5-1.3,18.3,5.4,19.6,14.9
	c0.1,0.6,0.1,1.2,0.1,1.9C334.4,74.7,333.1,76.9,328.7,75.9z"/>
<path class="st2" d="M360.4,75.8c-5.9,1.7-6-2.2-5.9-7c0.3-10.8,11-16.5,20.2-15.5c1.6,0.2,2.2,1,2.4,2.5
	C378.2,66,371.1,76.9,360.4,75.8z"/>
<path class="st2" d="M106.1,181.1c10.6-1,17.6,10,16.5,20c-0.2,2-1.3,2.5-3,2.5c-11.3,0.2-21-5.9-19.6-19.6
	C100.5,179.3,104.3,181.8,106.1,181.1z"/>
<path class="st2" d="M445.1,75.9c-4.7,1.1-5.8-1.2-5.9-6.1c-0.2-10.3,9.6-17.3,20-16.5c1.9,0.2,2.6,1,2.7,2.8
	C462.6,66.2,456.7,76.6,445.1,75.9z"/>
<path class="st2" d="M419,155.1c1,4.5-1.2,6-6.2,5.7c-9.7-0.5-17.1-8.7-16.6-18.4c0-0.4,0.1-0.7,0.1-1.1c0.2-2,0.9-2.9,3-3.2
	c9.2-1.6,17.9,4.6,19.4,13.8C418.9,152.9,419,154,419,155.1z"/>
<path class="st2" d="M354.5,155.2c0-11.1,9.2-18.7,19.7-17.1c2.1,0.3,2.7,1.3,3,3.2c1.2,9.5-5.5,18.1-14.9,19.4
	c-0.5,0.1-1,0.1-1.5,0.1C355.9,161.1,353.4,159.8,354.5,155.2z"/>
<path class="st2" d="M269.7,154.7c0-9.3,7.5-16.8,16.8-16.8c1,0,2,0.1,3.1,0.3c1.5,0,2.8,1.3,2.8,2.8c1.9,11.1-9,22-20,19.8
	C268,159.9,270.4,156.6,269.7,154.7z"/>
<path class="st2" d="M164.5,155.3c1.2,4.9-1.7,5.7-6.3,5.5c-12.1-0.7-16.6-10.3-16.3-19.6c0.1-2.1,1-2.8,3.1-3.1
	C155.6,136.6,164.5,144.1,164.5,155.3z"/>
<path class="st2" d="M100,154.4c0.2-9.3,7.9-16.7,17.2-16.6c0.9,0,1.9,0.1,2.8,0.3c1.3,0.1,2.4,1.1,2.6,2.4
	c2.5,10.8-9.6,22.9-20.2,20.1C98.3,159.6,100.8,156.3,100,154.4z"/>
<path class="st2" d="M62.9,138.1c11,0,19,9.8,16.8,20.1c-0.1,1.3-1.1,2.4-2.4,2.5c-10.7,2.5-22.8-9.8-20.1-20.3
	C58.1,136.7,61.1,138.8,62.9,138.1z"/>
<path class="st2" d="M32.8,138.1c4.2-0.9,5.4,1.4,5.1,5.7c-0.7,11-8.2,17.7-19,17c-2.6-0.2-3.5-1-3.8-3.6
	C14.3,146.2,21.4,138.2,32.8,138.1z"/>
<path class="st2" d="M418.9,494.1c1,4.7-1,6.2-6,6c-10.1-0.4-18.3-10.1-16.5-20c0.3-1.9,1.1-2.5,2.9-2.7
	C409.2,476.5,420.6,483.7,418.9,494.1z"/>
<path class="st2" d="M444.9,500c-5.1,1.2-5.6-1.7-5.7-6.3c-0.2-11.2,10.1-17,20-16.3c1.9,0.1,2.6,1.1,2.7,2.9
	C462.7,490.9,455.5,500.8,444.9,500z"/>
<path class="st2" d="M462,112.8c0,6.3-1.1,7.1-7.4,5.7c-11.5-2.5-16-8.2-15.3-18.5c0.1-2.1,0.4-3.4,3-3.8
	C452.8,94.7,461.9,102.3,462,112.8z"/>
<path class="st2" d="M164.5,17c0.8,10.6-9,17.8-19.7,17c-2.2-0.2-2.8-1.3-2.9-3.3c-0.5-10.5,5.8-19.9,16.8-19.5
	C163.4,11.5,165.5,12.6,164.5,17z"/>
<path class="st2" d="M328.7,11.4c4.9-1.2,5.8,1.6,5.5,6.3c-0.6,12.1-10.2,16.6-19.6,16.3c-2.1-0.1-2.9-1-3.1-3.1
	c-1.5-9.2,4.8-17.9,14-19.4C326.6,11.5,327.6,11.4,328.7,11.4z"/>
<path class="st2" d="M269.7,17.4c-1-4.6,1-6.2,6-6c10.1,0.4,18.3,10.1,16.5,20c-0.3,1.8-1.1,2.5-2.9,2.7
	C279.5,35,268,27.8,269.7,17.4z"/>
<path class="st2" d="M164.5,272c0.3,12-10.7,17-19.9,16.5c-1.9-0.1-2.7-1-2.8-2.8c-0.5-11.3,5.6-21.5,19.7-19.7
	C164.5,266.3,164.5,266.5,164.5,272z"/>
<path class="st2" d="M21.2,11.5c11.8-0.9,17.5,11.4,16.6,20c-0.2,2-1.3,2.4-3,2.6c-8.9,0.7-20.3-5.2-19.8-16.7
	C15.2,12.2,16.9,10.6,21.2,11.5z"/>
<path class="st2" d="M73.7,265.9c1.8,0.5,5-1.3,5.6,1.7c1,4.4,1,9.2-1.7,13.1c-1.9,2.7-4.2,5.2-7.8,6.1c-4.1,1-9.5,4.1-12,0.4
	c-2.7-4.1-0.5-9.9,2.2-14.4S67.9,265.9,73.7,265.9z"/>
<path class="st2" d="M21.4,266c10.7-1,17.5,10.2,16.3,20.1c-0.2,1.6-1,2.1-2.5,2.5c-11.4,2.5-22.9-9.1-20-20.2
	C16.3,264.2,19.6,266.7,21.4,266z"/>
<path class="st2" d="M503.8,494.5c1,4.4-1.1,5.5-5.8,5.7c-10.1,0.4-17.5-8.9-16.8-19.7c0.1-2.1,1-3,3.1-3.1
	C494.6,476.9,504.6,483,503.8,494.5z"/>
<path class="st2" d="M20.8,75.9c-5.1,1.3-5.8-1.7-5.7-6.3c0.3-11.6,10-17,20.1-16.2c2,0.1,2.5,1.2,2.6,3
	C38.5,65.2,32.6,77,20.8,75.9z"/>
<path class="st2" d="M419,240.1c1.2,5-1.8,5.6-6.4,5.5c-9.8-0.3-18.4-10.8-16.2-20.2c0.2-1.3,1.2-2.3,2.5-2.4
	C409.1,220.8,419,228.9,419,240.1z"/>
<path class="st2" d="M287.2,222.9c4.9-1.2,5.5,2,5.1,6.2c-0.9,10.8-8.2,17.2-18.8,16.5c-2-0.1-3.5-0.3-3.8-2.9
	C268,232,275.8,222.9,287.2,222.9z"/>
<path class="st2" d="M243.8,245.6c-9.5,0.1-17.3-7.6-17.3-17.2c0-0.9,0.1-1.7,0.2-2.5c0.3-2.1,1.2-2.8,3.3-2.9
	c11.4-0.6,19.6,6.5,19.5,16.9C249.4,244.6,248,246.5,243.8,245.6z"/>
<path class="st2" d="M79.6,239.9c1,4.4-1,5.6-5.7,5.8c-10,0.4-17.5-8.8-16.9-19.6c0.1-2.1,0.9-3,3-3.1
	C70.4,222.4,80.4,228.4,79.6,239.9z"/>
<path class="st2" d="M276.2,181.2c9.1-2.1,17.6,10.4,16,20.4c-0.3,1.7-1.4,1.9-2.8,2.1c-9.8,1.6-19.4-6.4-19.8-16
	C269.3,182.1,271.1,179.9,276.2,181.2z"/>
<path class="st2" d="M377.1,198.7c1,4.4-1.6,5.3-5.8,5c-11-0.7-17.7-8.3-16.9-19c0.2-2.6,1.1-3.5,3.7-3.7
	C369.2,180.2,377.1,187.3,377.1,198.7z"/>
<path class="st2" d="M158.9,75.9c-11.5,0.8-17.6-9.3-17-19.6c0.1-2.1,1.1-2.9,3.1-3c10.9-0.7,20,6.8,19.6,16.9
	C164.5,74.9,163.2,76.9,158.9,75.9z"/>
<path class="st2" d="M275.2,75.9c-4.5,1.1-5.8-1.3-5.7-6.2c0.2-11,9.3-17.1,19.9-16.4c1.8,0.1,2.5,0.9,2.9,2.7
	C294,65.9,285.9,75.9,275.2,75.9z"/>
<path class="st2" d="M184.9,441.2c-1.2-4.9,1.5-5.7,6.2-5.8c10.4-0.2,17.2,9.8,16.4,20.1c-0.2,1.9-1.1,2.5-2.9,2.7
	C195.7,458.9,183.8,453,184.9,441.2z"/>
<path class="st2" d="M190.3,75.9c-4.9,1.2-5.5-1.7-5.6-6.3c-0.2-11.2,9.9-17,19.9-16.3c1.8,0.1,2.5,1,2.8,2.8
	C209.2,66.1,201,75.9,190.3,75.9z"/>
<path class="st2" d="M158.8,435.6c4.4-1,5.9,1,5.8,5.7c-0.2,9.6-8.1,17.2-17.7,17c-0.6,0-1.3-0.1-1.9-0.1c-2.1-0.3-2.9-1-3.1-3.1
	C141,444.5,148.6,434.3,158.8,435.6z"/>
<path class="st2" d="M106.6,96.3c10.2-1,17.2,10,16.1,20.1c-0.2,1.9-1.3,2.6-3,2.5c-9.7-0.3-19.7-4-19.6-16.8
	C100.1,96.3,100,96.3,106.6,96.3z"/>
<path class="st2" d="M439.4,17.3c0.5-1.7-1.3-4.9,1.7-5.5c4.4-0.9,9.2-1.1,13.1,1.7c5.9,4.3,8.2,10.5,7.8,17.7
	c-0.1,1.8-0.8,2.7-2.7,2.8C448.8,34.9,438.7,27.9,439.4,17.3z"/>
<path class="st2" d="M419,409.6c1.1,4.6-1.3,5.8-6.2,5.6c-10-0.4-18.3-10.2-16.5-20c0.3-1.8,1.2-2.4,2.9-2.7c9.3-1.5,18,4.8,19.5,14
	C418.9,407.6,419,408.6,419,409.6z"/>
<path class="st2" d="M419,70.4c1.2,4.9-1.6,5.8-6.3,5.6c-9.9-0.3-18.2-10.4-16.3-20.1c0.4-1.9,1.2-2.5,2.9-2.6
	C410.1,52.6,419.2,59,419,70.4z"/>
<path class="st2" d="M354.5,17c-1.2-5,1.6-5.8,6.3-5.7c11.3,0.2,17,9.7,16.3,20c-0.1,1.9-1.1,2.6-2.9,2.7
	C363.6,34.8,353.8,27.6,354.5,17z"/>
<path class="st2" d="M164.5,494.5c1.1,4.6-1.3,5.6-5.9,5.6c-10.5,0.1-17.3-8.4-16.7-19.6c0.1-2.1,0.9-3,3-3.1
	C155.7,476.7,165.3,484.1,164.5,494.5z"/>
<path class="st2" d="M73.7,75.9C63.1,76.3,56.5,67.4,57,56.3c0.1-2.1,1-3,3.1-3.1c10.3-0.5,21.2,5.7,19.5,19.6
	C79.3,75.9,79.2,75.9,73.7,75.9z"/>
<path class="st2" d="M503.8,70.2c1.2,4.9-1.5,5.9-6.2,5.8c-9.9-0.3-18.2-10.4-16.3-20.1c0.1-1.5,1.4-2.7,2.9-2.6c0,0,0,0,0,0
	C493,52.6,504.8,58.5,503.8,70.2z"/>
<path class="st2" d="M20.7,415.2c-4.8,1.2-5.7-1.6-5.5-6.3c0.3-9.4,8.1-16.8,17.5-16.6c0.8,0,1.6,0.1,2.4,0.2
	c1.5,0.1,2.7,1.3,2.8,2.8C39.5,405.4,31.4,415.2,20.7,415.2z"/>
<path class="st2" d="M21.8,96.3c10.2-0.9,17.1,10.1,16,20.1c-0.2,2-1.3,2.5-3,2.5c-9.8-0.3-19.7-4.1-19.5-16.8
	C15.2,96.3,15.2,96.3,21.8,96.3z"/>
<path class="st2" d="M419,17.6c0.7,11.1-9.5,17-19.7,16.4c-2.2-0.1-2.7-1.2-3-3.2c-1.2-10.3,6.5-19.4,16.5-19.4
	C419,11.4,419,11.4,419,17.6z"/>
<path class="st2" d="M361,266c10.6-1.4,17.4,11.1,16,20.4c-0.2,1.7-1.4,1.9-2.8,2.1c-9.5,1.4-18.3-5.2-19.7-14.8
	c-0.2-1.6-0.2-3.2,0-4.8C355.2,263.8,359.1,266.8,361,266z"/>
<path class="st2" d="M418.9,271.8c1,11.7-11.1,17.5-19.9,16.7c-2.3-0.2-2.5-1.6-2.7-3.4c-1-10.7,6.6-19,17.2-19.3
	C418.8,265.6,419.6,268,418.9,271.8z"/>
<path class="st2" d="M498.2,245.5c-10.4,0.8-17.8-8.8-17-19.6c0.1-1.7,0.6-2.9,2.6-3c12.6-0.8,21.7,6.9,20,20.1
	C503.2,247,499.9,245,498.2,245.5z"/>
<path class="st2" d="M354.5,239.2c0.2-9.3,7.8-16.7,17.2-16.6c0.9,0,1.8,0.1,2.7,0.3c1.8,0.3,2.6,1.1,2.7,2.9
	c0.4,8.9-3.7,19.1-16,19.8C354.6,245.9,354.5,245.7,354.5,239.2z"/>
<path class="st2" d="M503.8,187.2c0,10.1-10,18.3-19.9,16.5c-1.8-0.3-2.6-1.1-2.7-2.9c-0.6-11.3,6.1-21.7,19.7-19.7
	C503.8,181.6,503.8,181.6,503.8,187.2z"/>
<path class="st2" d="M445.7,181.1c10.9-0.7,17.4,10.7,16.1,20.3c-0.3,2-1.6,2.1-3.2,2.3c-9.4,1.3-18.1-5.4-19.4-14.8
	c-0.2-1.5-0.2-3,0-4.6C439.9,179.1,443.8,181.9,445.7,181.1z"/>
<path class="st2" d="M419,186.6c0,10.6-9.9,18.8-19.8,17.1c-2.2-0.4-2.7-1.4-2.8-3.4c-0.8-9.9,7-20.5,17-19.5
	C418,181.4,419.9,182.6,419,186.6z"/>
<path class="st2" d="M334.2,185.9c-0.5,13.9-8.5,17-19.2,17.8c-2.3,0.2-3.2-0.9-3.5-3.3c-1.1-10.1,7-20.7,17.4-19.5
	C333,181.4,335,182.2,334.2,185.9z"/>
<path class="st2" d="M105.3,330.4c-4.5,1.1-5.5-1.4-5.4-5.9c0-9.4,7.7-17,17.1-16.9c0.8,0,1.7,0.1,2.5,0.2c2,0.3,2.9,0.9,3.2,3
	c1.3,9.5-5.3,18.2-14.8,19.5C107.1,330.3,106.2,330.4,105.3,330.4z"/>
<path class="st2" d="M79.6,17c0.6,11.2-9.8,18-20,17c-1.9-0.2-2.5-1.2-2.6-2.9c-0.6-11.9,6.4-20.9,19.4-19.7
	C81.4,11.8,78.8,15.5,79.6,17z"/>
<path class="st2" d="M158.6,181.1c4.6-1,6.2,1,6,6.1c-0.4,10.1-10.1,18.3-20,16.5c-1.8-0.3-2.5-1.1-2.7-2.9
	C140.9,190.4,148.4,179.9,158.6,181.1z"/>
<path class="st2" d="M79.7,187.1c-0.1,10.1-10.7,18.7-20.2,16.5c-1.5-0.4-2.3-1-2.4-2.5c-0.8-11.5,6.1-22.1,19.9-20
	C81.3,181.8,79,185.3,79.7,187.1z"/>
<path class="st2" d="M22,181.1c10.5-0.7,16.9,10.8,15.7,20.3c-0.3,2-1.6,2.1-3.2,2.3c-11.5,1.3-20.7-7.9-19.3-19.4
	C15.6,181.1,15.6,181.1,22,181.1z"/>
<path class="st2" d="M503.8,155.1c1,4.5-1.2,5.9-6.1,5.7c-9.6-0.5-17.1-8.7-16.6-18.3c0-0.4,0.1-0.8,0.1-1.2c0.2-2,0.8-2.9,3-3.2
	C494.6,136.5,503.7,144.1,503.8,155.1z"/>
<path class="st2" d="M184.9,155c0-11.1,9.6-19,20-16.9c1.3,0.1,2.4,1.1,2.6,2.4c2.6,10.8-9.4,22.8-20.2,20.2
	C183.4,159.8,185.4,156.8,184.9,155z"/>
<path class="st2" d="M498.5,435.6c4.2-0.9,5.5,1.2,5.4,5.6c-0.1,9.5-7.9,17.2-17.4,17.1c-0.7,0-1.4-0.1-2.1-0.1
	c-2-0.2-3.1-0.8-3.2-3C480.6,445.1,486.5,434.6,498.5,435.6z"/>
<path class="st2" d="M439.4,441c-1.3-5.1,1.9-5.6,6.4-5.5c11.5,0.3,16.9,10,16.2,20.1c-0.1,1.9-1.2,2.5-2.9,2.6
	C449.5,458.6,438.9,453.3,439.4,441z"/>
<path class="st2" d="M498.3,96.3c4.7-1.1,5.7,1.5,5.6,6.2c-0.4,12.9-10.9,16.2-20,16.3c-1.9,0-2.4-1.1-2.7-2.8
	C479.5,105.6,487.2,96.3,498.3,96.3z"/>
<path class="st2" d="M413.3,96.3c5-1.2,6,1.5,5.8,6.2c-0.3,10.4-9.9,18.3-20.1,16.3c-1.9-0.4-2.4-1.3-2.6-3
	C395.4,105.4,403,95,413.3,96.3z"/>
<path class="st2" d="M190.9,11.4c10.1,0.1,18.7,10.7,16.5,20.2c-0.2,1.3-1.2,2.3-2.5,2.4c-11.5,2.5-22.4-8.4-20.1-20
	C185.7,9.8,189,12.2,190.9,11.4z"/>
<path class="st2" d="M105.8,11.4c9.6,0.1,17.2,8,17.1,17.5c0,0.8-0.1,1.5-0.2,2.2c-0.3,1.8-0.9,2.5-2.7,2.9
	c-11.2,2-21.6-8.2-19.9-19.7C100.6,10,103.8,12,105.8,11.4z"/>
<path class="st2" d="M15.2,441.1c-1-4.5,1.3-5.8,6.2-5.7c10.9,0.2,17.1,9.1,16.5,19.8c-0.1,1.8-0.8,2.6-2.7,2.9
	C25.3,460,15.2,451.8,15.2,441.1z"/>
<path class="st2" d="M413.1,435.6c1.6,0.5,4.8-1.2,5.5,1.6c1,4.4,1.1,9.2-1.7,13c-4.3,5.8-10.5,8.1-17.8,7.9
	c-1.8-0.1-2.7-0.8-2.8-2.7C395.5,445,402.5,435,413.1,435.6z"/>
<path class="st2" d="M105.7,75.9c-4.3,1-5.6-1-5.8-5.7c-0.4-9.9,8.6-17.5,19.6-16.9c2,0.1,3.1,0.8,3.2,2.9
	C123.4,66.9,116.2,76.7,105.7,75.9z"/>
<path class="st2" d="M503.8,410.1c0.9,4.1-1.2,5.4-5.6,5.2c-9.6-0.2-17.3-8.1-17.1-17.7c0-0.6,0.1-1.2,0.1-1.8
	c0.2-2,0.8-2.9,2.9-3.2C494.7,390.9,503.9,398.8,503.8,410.1z"/>
<path class="st2" d="M74.2,96.3c5-1.2,5.7,1.8,5.6,6.3c-0.3,10.3-10,18.3-20.1,16.3c-1.9-0.4-2.5-1.3-2.6-3
	C56.4,104.9,63,95.9,74.2,96.3z"/>
<path class="st2" d="M159.1,96.3c4.5-1.1,5.6,1.3,5.5,5.9c-0.2,12.7-10,16.4-19.7,16.7c-2.1,0.1-2.9-1-3-3.1
	C141.3,104.5,148.1,95.8,159.1,96.3z"/>
<path class="st2" d="M184.9,102.2c0-5.6,5.6-8.2,12-5.4s11.4,11.7,10.6,19c-0.2,2-0.9,3.2-3,3.1C194.8,118.6,184.8,115,184.9,102.2z
	"/>
<path class="st2" d="M243.9,96.3c4.7-1.2,6,1.6,5.5,6.3c-1.2,12.4-9.3,16.1-19.5,16.3c-2.1,0-2.9-0.9-3.2-3
	C225.2,105.3,232.7,96.3,243.9,96.3z"/>
<path class="st2" d="M269.7,101.7c-1.2-4.8,1.6-5.7,6.3-5.6c11.2,0.2,17,9.6,16.3,20c-0.1,1.9-1,2.7-2.8,2.7
	C280,118.7,269.7,115.2,269.7,101.7z"/>
<path class="st2" d="M311.5,113c0-10.8,8.9-18.2,19.6-16.8c2.1,0.3,2.9,1,3.1,3.1c0.9,13.8-8.5,19.5-19.9,19.4
	C309.9,118.7,312.2,114.9,311.5,113z"/>
<path class="st2" d="M269.8,356.8c-1-4.5,0.7-6.4,5.9-6.2c10.2,0.4,18.3,9.8,16.6,19.9c-0.3,1.8-0.9,2.6-2.7,2.8
	C278.6,374.5,267.9,365.5,269.8,356.8z"/>
<path class="st2" d="M74.4,350.7c4.6-1.1,5.5,1.5,5.3,6c-0.4,10.3-9.9,18.3-19.8,16.6c-1.7-0.3-2.5-0.9-2.9-2.7
	C55.1,360.2,63.1,350.7,74.4,350.7z"/>
<path class="st2" d="M20.7,350.8c11.1-0.4,17.7,8.5,17.1,19.5c-0.1,2.1-1,2.8-3.1,3.1c-9.5,1.3-18.2-5.4-19.5-14.9
	c-0.1-0.6-0.1-1.3-0.1-1.9C15,351.9,16.4,349.7,20.7,350.8z"/>
<path class="st2" d="M184.9,186.5c-1-4.3,1.1-5.4,5.8-5.6c9.9-0.4,17.5,8.7,16.8,19.6c-0.1,2-0.9,2.9-3,3.2
	c-9.5,1.3-18.2-5.4-19.5-14.9C184.9,188.1,184.8,187.3,184.9,186.5z"/>
<path class="st2" d="M419,356.2c0,9.6-7.8,17.4-17.4,17.3c-0.8,0-1.6-0.1-2.3-0.2c-2.2-0.3-2.8-1.3-2.9-3.3
	c-0.6-11,7-19.9,16.9-19.5C418,350.8,419.9,352,419,356.2z"/>
<path class="st2" d="M439.3,155.4c0-11.3,9.7-19.3,20-17.3c1.9,0.4,2.4,1.2,2.6,2.9c1.5,9.7-6.4,19.2-16.2,19.7
	C441.3,161,438.1,160.4,439.3,155.4z"/>
<path class="st2" d="M106.6,265.9c9.6,0,18.2,10.8,16.1,20.2c-0.4,1.9-1.5,2.2-3.1,2.4c-10.1,1.3-19.4-6.4-19.5-16.2
	C100,265.9,100,265.9,106.6,265.9z"/>
<path class="st2" d="M451.2,509.8c11.2-3.6,17.1-10.9,20.3-21.3c1.7,4.8,3.5,9.3,7.1,12.9s7.3,7,12.5,8.4H451.2z"/>
<path class="st2" d="M112.7,509.9c10.4-4.1,16.5-10.7,19.7-22.1c2.1,11.8,9.6,17.8,19.8,22.1H112.7z"/>
<path class="st2" d="M367.8,509.9c9.3-4.6,16.9-10.3,18.7-22.6c3.3,11.7,9.8,18.7,20.6,22.6H367.8z"/>
<path class="st2" d="M196.8,509.8c11.2-3.6,17.1-10.9,20.4-21.5c2.5,11.1,9.5,17.5,19.7,21.5H196.8z"/>
<path class="st2" d="M302,488.4c2.4,11.1,9.6,17.6,20.2,21.6h-41.1c5.3-1.4,10-4.3,13.7-8.3C298.4,497.9,300.3,493.4,302,488.4z"/>
<path class="st2" d="M27.1,509.9c11.1-3.5,17.2-11,20.3-21.2c3.3,10.5,8.1,15.9,19.2,21.2H27.1z"/>
<path class="st2" d="M151.1,1.7c-9.1,4.9-16.9,10.4-18.7,21.7c-3.1-10.3-8.8-17.7-18.7-21.7L151.1,1.7z"/>
<path class="st2" d="M5.3,318.1v-40.7C8.9,288.9,16.3,295,27,298.2C16,300.3,9.9,307.6,5.3,318.1z"/>
<path class="st2" d="M471.6,22.6c-3.1-10.4-9.6-16.7-20.1-20.9h38.9c-4.3,2.1-8.2,4.9-11.7,8.2C475.3,13.4,472.8,17.8,471.6,22.6z"
	/>
<path class="st2" d="M66.6,1.6c-9.5,4.5-16.3,10.5-19.1,20.8C44,12.7,38.3,5.6,27.7,1.6H66.6z"/>
<path class="st2" d="M217.1,23.7c-3-10.9-8.6-17.2-19.4-22h38.6C226.7,6.2,219.2,12,217.1,23.7z"/>
<path class="st2" d="M322.1,1.6c-11,4.5-17.9,10.8-20.1,21.7c-3-10.3-9-17.4-19.7-21.7H322.1z"/>
<path class="st2" d="M406,1.6c-10.2,4.4-16.7,11-19.5,22.2c-2.1-11.5-8.9-17.9-20-22.2L406,1.6z"/>
<path class="st2" d="M5.2,64.2V24.5c4.7,9.1,10.4,16.3,21.1,19.1C15.8,47.1,8.8,53.5,5.2,64.2z"/>
<path class="st2" d="M5.2,233.3V194c4.5,10,11.2,16.6,22.1,19.3C16,215.5,9.9,222.8,5.2,233.3z"/>
<path class="st2" d="M5.4,364.6c6.3,11,11.5,15.5,21.6,18.4c-11.1,2.5-17.6,9.5-21.6,19.7L5.4,364.6z"/>
<path class="st2" d="M26,467.8c-12,5.5-15.8,8.9-21,20v-41.4C8.6,458.1,15.9,464,26,467.8z"/>
<path class="st2" d="M5,107.2c3.6,11.6,10.8,17.5,21.5,21.4C15.4,131,9.3,137.6,5,147c0-6.4,0-12.7,0-19.1V107.2z"/>
</svg>
