<?xml version="1.0" encoding="utf-8"?>
<!-- Generator: Adobe Illustrator 21.0.2, SVG Export Plug-In . SVG Version: 6.00 Build 0)  -->
<svg version="1.1" id="Layer_1" xmlns="http://www.w3.org/2000/svg" xmlns:xlink="http://www.w3.org/1999/xlink" x="0px" y="0px"
	 viewBox="0 0 100.3 101" style="enable-background:new 0 0 100.3 101;" xml:space="preserve">
<style type="text/css">
	.st0{fill:#363636;}
</style>
<g>
	<path class="st0" d="M50.2,99.7C23,99.7,0.9,77.6,0.9,50.5S23,1.3,50.2,1.3s49.2,22.1,49.2,49.2S77.3,99.7,50.2,99.7z M50.2,6.9
		c-24,0-43.6,19.6-43.6,43.6s19.6,43.6,43.6,43.6s43.6-19.6,43.6-43.6S74.2,6.9,50.2,6.9z"/>
	<path class="st0" d="M69.6,31.1c-8.1,11-16.2,22-24.3,33.1c-3.3-4.1-6.6-8.1-9.8-12.2c-2.8-3.5-7.8,1.5-5,5
		c4.1,5.1,8.3,10.3,12.4,15.4c1.6,1.9,4.3,0.9,5.5-0.7c9.1-12.3,18.1-24.7,27.2-37C78.3,31,72.2,27.5,69.6,31.1z"/>
</g>
</svg>
