<?xml version="1.0" encoding="utf-8"?>
<!-- Generator: Adobe Illustrator 21.0.2, SVG Export Plug-In . SVG Version: 6.00 Build 0)  -->
<svg version="1.1" id="Layer_1" xmlns="http://www.w3.org/2000/svg" xmlns:xlink="http://www.w3.org/1999/xlink" x="0px" y="0px"
	 viewBox="0 0 360.1 300" style="enable-background:new 0 0 360.1 300;" xml:space="preserve">
<style type="text/css">
	.st0{fill:#363636;}
</style>
<g>
	<path class="st0" d="M116.5,130.6c0-19.4-15.8-35.2-35.2-35.2s-35.2,15.8-35.2,35.2s15.8,35.2,35.2,35.2S116.5,150,116.5,130.6z
		 M81.3,150.5c-11,0-19.9-8.9-19.9-19.9s8.9-19.9,19.9-19.9s19.9,8.9,19.9,19.9S92.3,150.5,81.3,150.5z"/>
	<path class="st0" d="M308.9,5.2c-30.7,0-46.2,19.2-46.2,57.1c0,30.8,27.2,65,38.1,77.5c-31.4,7.3-108.1,26.6-116.4,42.3
		c-1.2,2.4-1.4,5-0.5,7.3c4.3,10.5,18.3,12.1,31.8,13.6c9.6,1.1,20.5,2.3,22.4,6.6c-5.6,10.2-72,40.7-140.1,67.7
		c21-23.7,64.2-78.7,64.2-128.5c0-80-43.9-96.8-80.7-96.8c-52.6,0-78.1,31.7-78.1,96.8c0,64.3,69.7,137.2,72.6,140.3l5.4,5.6
		l0.2-0.2l0,0.1c0.4-0.2,42.4-16.3,83.3-34.3c86.5-38,84.5-46.7,83.2-52.4c-2.8-11.9-17.3-13.5-31.5-15.1
		c-9.6-1.1-20.4-2.3-23.1-6.6c5.9-8.7,63.6-26.3,115-37.9l0-0.1l0.1,0.1l3.7-3.7c1.8-1.8,44.1-44.6,44.1-82.4
		C356.6,15.1,330.6,5.2,308.9,5.2z M18.8,148.9c0-56.4,19.4-81.5,62.8-81.5c44.6,0,65.4,25.9,65.4,81.5
		c0,48.3-48.7,105.6-65.3,123.8C65.6,254.4,18.8,197.2,18.8,148.9z M308.9,133.6c-9.8-11.2-36.1-43.8-36.1-71.3
		c0-41.6,19.3-46.9,36-46.9c25.6,0,37.5,14.9,37.5,46.9C346.4,89.8,319,122.5,308.9,133.6z"/>
	<path class="st0" d="M308.7,30.5c-11.7,0-21.2,9.5-21.2,21.2s9.5,21.2,21.2,21.2c11.7,0,21.2-9.5,21.2-21.2S320.3,30.5,308.7,30.5z
		 M308.7,62.6c-6.1,0-11-4.9-11-11s4.9-11,11-11s11,4.9,11,11S314.7,62.6,308.7,62.6z"/>
</g>
</svg>
