<?xml version="1.0" encoding="utf-8"?>
<!-- Generator: Adobe Illustrator 21.0.2, SVG Export Plug-In . SVG Version: 6.00 Build 0)  -->
<svg version="1.1" id="Layer_1" xmlns="http://www.w3.org/2000/svg" xmlns:xlink="http://www.w3.org/1999/xlink" x="0px" y="0px"
	 viewBox="0 0 300 300" style="enable-background:new 0 0 300 300;" xml:space="preserve">
<style type="text/css">
	.st0{fill:#373636;}
</style>
<path class="st0" d="M150,248.4l-2.6-1.5C134.1,239,18.4,167.5,44,95.1c9.1-25.8,28-41.6,51.8-43.4c21.1-1.6,41.6,8.7,54.2,26.5
	c12.6-17.8,33.2-28.1,54.2-26.5c23.8,1.8,42.6,17.6,51.8,43.4v0c25.7,72.4-90.1,143.8-103.4,151.7L150,248.4z M100,61.7
	c-1.2,0-2.3,0-3.5,0.1c-19.6,1.4-35.2,14.8-43,36.6c-21.7,61.3,78.3,126.8,96.4,138c18.1-11.2,118.2-76.7,96.4-138v0
	c-7.7-21.8-23.4-35.2-43-36.6c-19.8-1.5-39,9.7-49,28.4l-4.5,8.4l-4.5-8.4C136.2,72.7,118.6,61.7,100,61.7z"/>
</svg>
