<?xml version="1.0" encoding="utf-8"?>
<!-- Generator: Adobe Illustrator 21.0.2, SVG Export Plug-In . SVG Version: 6.00 Build 0)  -->
<svg version="1.1" id="Layer_1" xmlns="http://www.w3.org/2000/svg" xmlns:xlink="http://www.w3.org/1999/xlink" x="0px" y="0px"
	 viewBox="0 0 300 300" style="enable-background:new 0 0 300 300;" xml:space="preserve">
<style type="text/css">
	.st0{fill:none;}
	.st1{fill:#363636;}
</style>
<g>
	<path class="st0" d="M192.4,154.6V237l64.9-17.4V73.9l-38.9,10.4c0.7,4,1,8.4,1,13.4C219.5,118.9,202.9,142.1,192.4,154.6z"/>
	<polygon class="st0" points="42.7,237.3 108.8,219.6 108.8,73.9 42.7,91.6 	"/>
	<path class="st0" d="M177.9,163.9c-1.4-1.4-34.2-35.9-34.2-66.2c0-6.7,0.6-12.6,1.8-17.9l-28.2-7.5v146.2l66.5,17.6v-72l-2.9,2.9
		L177.9,163.9z"/>
	<path class="st1" d="M113.5,217.6l3.8,1V72.3l-6-1.6l1.8-6.9L34.1,85v163.4l80.9-21.6l-3.7-1L113.5,217.6z M108.8,219.6l-66.1,17.7
		V91.6l66.1-17.7V219.6z"/>
	<path class="st1" d="M145.5,79.8c0.7-2.9,1.5-5.7,2.6-8.2l-30.8-8.1v8.8L145.5,79.8z"/>
	<path class="st1" d="M192.4,237v-82.3c-4.5,5.4-7.9,8.9-8.4,9.3l-0.2,0.2v72l-66.5-17.6v7.6l-2.3,0.6l72.8,19.2l-2-7.3L192.4,237z"
		/>
	<polygon class="st1" points="117.3,72.3 117.3,63.5 115.9,63.1 113.2,63.9 111.3,70.8 	"/>
	<polygon class="st1" points="117.3,218.6 113.5,217.6 111.3,225.8 115,226.8 117.3,226.2 	"/>
	<path class="st1" d="M216.5,76c0.8,2.5,1.5,5.3,2,8.3l38.9-10.4v145.7L192.4,237v8.8l73.5-19.6V62.8L216.5,76z"/>
	<polygon class="st1" points="185.9,238.7 187.8,246 189.7,246.5 192.4,245.8 192.4,237 	"/>
	<path class="st1" d="M198,89.1c0-9.5-7.7-17.2-17.2-17.2s-17.2,7.7-17.2,17.2s7.7,17.2,17.2,17.2S198,98.6,198,89.1z M180.8,97.7
		c-4.8,0-8.6-3.9-8.6-8.6c0-4.8,3.9-8.6,8.6-8.6s8.6,3.9,8.6,8.6C189.4,93.8,185.6,97.7,180.8,97.7z"/>
	<path class="st0" d="M208.2,78.2c-5.3-15.8-17.5-18-27.3-18c-9.1,0-19.1,2-24.6,13.7l34.2,9L208.2,78.2z"/>
	<path class="st0" d="M192.4,140.7c8.9-12,18.5-28.5,18.5-43.1c0-4.2-0.3-7.9-0.7-11.2l-17.8,4.8V140.7z"/>
	<path class="st0" d="M153.7,82c-0.9,4.3-1.5,9.5-1.5,15.7c0,21.9,20.9,47.9,28.8,57c0.8-0.9,1.8-2,2.8-3.2V89.9L153.7,82z"/>
	<path class="st1" d="M181,55.9c15.8,0,26.5,6.7,31.4,21.2l4.1-1.1C210,56.4,194.5,51.6,181,51.6c-16.3,0-27.3,6.8-32.9,20.1
		l4.1,1.1C157.3,61.2,166.9,55.9,181,55.9z"/>
	<path class="st1" d="M215.2,97.7c0,17.8-12.9,37.5-22.8,50.2v6.8c10.5-12.6,27.1-35.7,27.1-57c0-5-0.4-9.4-1-13.4l-4.2,1.1
		C214.9,89.1,215.2,93.2,215.2,97.7z"/>
	<path class="st1" d="M181,160.9c0,0-33-34.3-33-63.3c0-6.4,0.6-11.9,1.6-16.8l-4.1-1.1c-1.2,5.2-1.8,11.2-1.8,17.9
		c0,30.4,32.8,64.8,34.2,66.2l3,3.1l2.9-2.9v-6.2C182.1,159.8,181,160.9,181,160.9z"/>
	<path class="st1" d="M183.8,157.9v6.2l0.2-0.2c0.4-0.4,3.8-3.9,8.4-9.3v-6.8C189,152.1,185.9,155.6,183.8,157.9z"/>
	<path class="st1" d="M149.6,80.9c0.7-3,1.5-5.7,2.6-8.2l-4.1-1.1c-1.1,2.5-1.9,5.2-2.6,8.2L149.6,80.9z"/>
	<path class="st1" d="M214.3,85.4l4.2-1.1c-0.5-3-1.2-5.8-2-8.3l-4.1,1.1C213.2,79.6,213.8,82.4,214.3,85.4z"/>
	<path class="st1" d="M181,60.1c9.8,0,21.9,2.3,27.3,18l4.1-1.1c-4.8-14.5-15.6-21.2-31.4-21.2c-14.1,0-23.7,5.3-28.8,16.9l4.2,1.1
		C161.9,62.1,171.9,60.1,181,60.1z"/>
	<path class="st1" d="M210.9,97.7c0,14.6-9.7,31.1-18.5,43.1v7.1c10-12.6,22.8-32.4,22.8-50.2c0-4.5-0.3-8.5-0.9-12.3l-4.1,1.1
		C210.7,89.8,210.9,93.5,210.9,97.7z"/>
	<path class="st1" d="M181,160.9c0,0,1.1-1.1,2.9-3v-6.5c-1,1.2-2,2.3-2.8,3.2c-7.9-9.1-28.8-35.1-28.8-57c0-6.2,0.5-11.4,1.5-15.7
		l-4.1-1.1c-1.1,4.8-1.6,10.4-1.6,16.8C147.9,126.7,181,160.9,181,160.9z"/>
	<path class="st1" d="M156.4,73.8l-4.2-1.1c-1.1,2.4-1.9,5.2-2.6,8.2l4.1,1.1C154.4,78.8,155.3,76.1,156.4,73.8z"/>
	<path class="st1" d="M183.8,151.4v6.5c2.1-2.3,5.1-5.8,8.5-10.1v-7.1C189.3,145,186.3,148.6,183.8,151.4z"/>
	<path class="st1" d="M210.2,86.5l4.1-1.1c-0.5-3-1.1-5.8-2-8.3l-4.1,1.1C209.1,80.6,209.7,83.4,210.2,86.5z"/>
</g>
</svg>
