<?xml version="1.0" encoding="utf-8"?>
<!-- Generator: Adobe Illustrator 21.0.2, SVG Export Plug-In . SVG Version: 6.00 Build 0)  -->
<svg version="1.1" id="Layer_1" xmlns="http://www.w3.org/2000/svg" xmlns:xlink="http://www.w3.org/1999/xlink" x="0px" y="0px"
	 viewBox="0 0 242 211" style="enable-background:new 0 0 242 211;" xml:space="preserve">
<style type="text/css">
	.st0{fill:none;}
	.st1{fill:#363636;}
</style>
<g>
	<path class="st0" d="M164.5,110.2v84.6l66.6-17.9V27.4l-39.9,10.7c0.7,4.1,1,8.6,1,13.8C192.3,73.6,175.3,97.4,164.5,110.2z"/>
	<polygon class="st0" points="10.9,195.1 78.7,176.9 78.7,27.4 10.9,45.6 	"/>
	<path class="st0" d="M149.6,119.8c-1.4-1.4-35.1-36.8-35.1-67.9c0-6.9,0.6-12.9,1.8-18.4l-28.9-7.7v150l68.2,18.1V120l-3,3
		L149.6,119.8z"/>
	<path class="st1" d="M83.5,174.9l3.9,1V25.8l-6.2-1.6l1.8-7.1L2,38.8v167.7l83-22.2l-3.8-1L83.5,174.9z M78.7,176.9l-67.8,18.2
		V45.6l67.8-18.2V176.9z"/>
	<path class="st1" d="M116.4,33.5c0.7-3,1.5-5.8,2.7-8.4l-31.6-8.3v9L116.4,33.5z"/>
	<path class="st1" d="M164.5,194.8v-84.5c-4.6,5.5-8.1,9.1-8.6,9.5l-0.2,0.2V194l-68.2-18.1v7.8l-2.4,0.6l74.7,19.7l-2.1-7.5
		L164.5,194.8z"/>
	<polygon class="st1" points="87.4,25.8 87.4,16.7 86,16.3 83.2,17.1 81.3,24.2 	"/>
	<polygon class="st1" points="87.4,175.9 83.5,174.9 81.3,183.3 85.1,184.3 87.4,183.7 	"/>
	<path class="st1" d="M189.2,29.6c0.8,2.6,1.5,5.4,2.1,8.5l39.9-10.7v149.5l-66.7,17.9v9l75.4-20.1V16L189.2,29.6z"/>
	<polygon class="st1" points="157.8,196.5 159.8,204 161.7,204.5 164.5,203.8 164.5,194.8 	"/>
	<path class="st1" d="M170.3,43c0-9.8-7.9-17.7-17.7-17.7S135,33.2,135,43s7.9,17.7,17.7,17.7S170.3,52.7,170.3,43z M152.6,51.8
		c-4.9,0-8.8-4-8.8-8.8c0-4.9,4-8.8,8.8-8.8s8.8,4,8.8,8.8C161.4,47.8,157.5,51.8,152.6,51.8z"/>
	<path class="st0" d="M180.7,31.8c-5.4-16.2-18-18.5-28-18.5c-9.3,0-19.6,2.1-25.2,14.1l35.1,9.2L180.7,31.8z"/>
	<path class="st0" d="M164.5,96c9.1-12.3,19-29.2,19-44.2c0-4.3-0.3-8.1-0.7-11.5l-18.3,4.9V96z"/>
	<path class="st0" d="M124.8,35.7c-0.9,4.4-1.5,9.8-1.5,16.1c0,22.5,21.4,49.2,29.6,58.5c0.8-0.9,1.8-2.1,2.9-3.3V43.8L124.8,35.7z"
		/>
	<path class="st1" d="M152.8,8.9c16.2,0,27.2,6.9,32.2,21.8l4.2-1.1c-6.7-20.1-22.6-25-36.4-25c-16.7,0-28,7-33.8,20.6l4.2,1.1
		C128.5,14.4,138.3,8.9,152.8,8.9z"/>
	<path class="st1" d="M187.9,51.8c0,18.3-13.2,38.5-23.4,51.5v7c10.8-12.9,27.8-36.6,27.8-58.5c0-5.1-0.4-9.6-1-13.8l-4.3,1.1
		C187.6,43,187.9,47.2,187.9,51.8z"/>
	<path class="st1" d="M152.8,116.7c0,0-33.9-35.2-33.9-65c0-6.6,0.6-12.2,1.6-17.2l-4.2-1.1c-1.2,5.3-1.8,11.5-1.8,18.4
		c0,31.2,33.7,66.5,35.1,67.9l3.1,3.2l3-3v-6.4C153.9,115.6,152.8,116.7,152.8,116.7z"/>
	<path class="st1" d="M155.7,113.6v6.4l0.2-0.2c0.4-0.4,3.9-4,8.6-9.5v-7C161,107.7,157.8,111.2,155.7,113.6z"/>
	<path class="st1" d="M120.6,34.6c0.7-3.1,1.5-5.8,2.7-8.4l-4.2-1.1c-1.1,2.6-1.9,5.3-2.7,8.4L120.6,34.6z"/>
	<path class="st1" d="M187,39.2l4.3-1.1c-0.5-3.1-1.2-6-2.1-8.5l-4.2,1.1C185.9,33.2,186.5,36.1,187,39.2z"/>
	<path class="st1" d="M152.8,13.2c10.1,0,22.5,2.4,28,18.5l4.2-1.1c-4.9-14.9-16-21.8-32.2-21.8c-14.5,0-24.3,5.4-29.6,17.3l4.3,1.1
		C133.2,15.3,143.5,13.2,152.8,13.2z"/>
	<path class="st1" d="M183.5,51.8c0,15-10,31.9-19,44.2v7.3c10.3-12.9,23.4-33.3,23.4-51.5c0-4.6-0.3-8.7-0.9-12.6l-4.2,1.1
		C183.3,43.7,183.5,47.5,183.5,51.8z"/>
	<path class="st1" d="M152.8,116.7c0,0,1.1-1.1,3-3.1v-6.7c-1,1.2-2.1,2.4-2.9,3.3c-8.1-9.3-29.6-36-29.6-58.5
		c0-6.4,0.5-11.7,1.5-16.1l-4.2-1.1c-1.1,4.9-1.6,10.7-1.6,17.2C118.8,81.6,152.8,116.7,152.8,116.7z"/>
	<path class="st1" d="M127.6,27.3l-4.3-1.1c-1.1,2.5-1.9,5.3-2.7,8.4l4.2,1.1C125.5,32.4,126.4,29.7,127.6,27.3z"/>
	<path class="st1" d="M155.7,106.9v6.7c2.2-2.4,5.2-6,8.7-10.4V96C161.3,100.4,158.3,104.1,155.7,106.9z"/>
	<path class="st1" d="M182.8,40.3l4.2-1.1c-0.5-3.1-1.1-6-2.1-8.5l-4.2,1.1C181.7,34.3,182.3,37.1,182.8,40.3z"/>
</g>
</svg>
