<?xml version="1.0" encoding="utf-8"?>
<!-- Generator: Adobe Illustrator 21.0.2, SVG Export Plug-In . SVG Version: 6.00 Build 0)  -->
<svg version="1.1" id="Layer_1" xmlns="http://www.w3.org/2000/svg" xmlns:xlink="http://www.w3.org/1999/xlink" x="0px" y="0px"
	 viewBox="0 0 1000 609" style="enable-background:new 0 0 1000 609;" xml:space="preserve">
<style type="text/css">
	.st0{fill:#F1ECE5;}
	.st1{fill:#FFFFFF;}
	.st2{fill:#363636;}
	.st3{fill:#010101;}
</style>
<g>
	<g>
		<polyline class="st0" points="684.3,10.9 317.6,10.9 317.6,372.9 437.3,372.9 437.3,377.8 169,378.2 169.4,597.9 729.6,597 
			729.3,377.3 684.3,377.4 684.3,10.9 		"/>
		<path class="st0" d="M729.3,374.9l2.5,0L729.3,374.9 M317.6,372.9v-362h366.7v366.5l45-0.1l0.3,219.6l-560.2,0.9L169,378.2
			l268.2-0.4l0-4.9H317.6 M689.2,6H312.7v367.1l-148.6,0.2l0.4,229.5l570.1-0.9l-0.4-229.5l-2.5,0l-42.5,0.1V6"/>
	</g>
	<g>
		<rect x="7.2" y="8.5" class="st1" width="306.9" height="366.9"/>
		<path class="st2" d="M316.5,377.8H4.7V6h311.8V377.8z M9.7,372.9h301.9v-362H9.7V372.9z"/>
	</g>
	<g>
		<rect x="370.9" y="62" class="st1" width="259" height="259"/>
		<path class="st2" d="M632.4,323.6h-264v-264h264V323.6z M373.4,318.6h254.1V64.5H373.4V318.6z"/>
	</g>
	<g>
		<rect x="216" y="522.1" class="st1" width="221.3" height="77.8"/>
		<path class="st2" d="M439.8,602.4H213.6v-82.7h226.2V602.4z M218.5,597.4h216.3v-72.8H218.5V597.4z"/>
	</g>
	<g>
		<rect x="237.9" y="375.3" class="st1" width="199.3" height="80"/>
		<path class="st2" d="M439.8,457.8H235.5v-84.9h204.3V457.8z M240.4,452.8h194.4v-75H240.4V452.8z"/>
	</g>
	<g>
		<rect x="731.9" y="375.3" class="st1" width="233.2" height="224.5"/>
		<path class="st2" d="M967.6,602.3H729.5V372.9h238.1V602.3z M734.4,597.4h228.3V377.8H734.4V597.4z"/>
	</g>
	<g>
		<rect x="563.3" y="375.3" class="st1" width="123.5" height="80"/>
		<path class="st2" d="M689.2,457.8H560.8v-84.9h128.5V457.8z M565.7,452.8h118.5v-75H565.7V452.8z"/>
	</g>
	<g>
		<rect x="563.3" y="522.1" class="st2" width="123.5" height="77.8"/>
		<path class="st2" d="M689.2,602.4H560.8v-82.7h128.5V602.4z M565.7,597.4h118.5v-72.8H565.7V597.4z"/>
	</g>
	<g>
		<rect x="685.9" y="8.5" class="st1" width="306.9" height="366.9"/>
		<path class="st2" d="M995.3,377.8H683.5V6h311.8V377.8z M688.4,372.9h301.9v-362H688.4V372.9z"/>
	</g>
	<g>
		<rect x="38.7" y="375.3" class="st2" width="128.1" height="224.5"/>
		<path class="st2" d="M169.2,602.4h-133V372.9h133V602.4z M41.2,597.4h123.1V377.8H41.2V597.4z"/>
	</g>
	<g>
		<path class="st2" d="M441.1,190.6c-2.8,0-4.9,2.1-4.9,4.8c0,2.7,2.2,4.9,4.9,4.9c1.4,0,2.8-0.6,3.8-1.6l1.4,1.5
			c-1.4,1.4-3.4,2.3-5.3,2.3c-4,0-7.2-3.1-7.2-7c0-3.9,3.2-6.9,7.3-6.9c2,0,3.9,0.8,5.2,2.1l-1.4,1.7
			C443.9,191.3,442.5,190.6,441.1,190.6z"/>
		<path class="st2" d="M462.9,195.5c0,3.9-3.2,7-7.3,7c-4.1,0-7.3-3.1-7.3-7c0-4,3.2-7,7.3-7C459.7,188.5,462.9,191.6,462.9,195.5z
			 M450.6,195.5c0,2.7,2.3,4.9,5,4.9c2.7,0,4.9-2.2,4.9-4.9s-2.2-4.9-4.9-4.9C452.9,190.6,450.6,192.8,450.6,195.5z"/>
		<path class="st2" d="M472.1,200.4c2.2,0,3.6-1.4,3.6-3.7v-8.1h2.3v8.1c0,3.6-2.3,5.8-6,5.8s-6-2.2-6-5.8v-8.1h2.3v8.1
			C468.4,199,469.8,200.4,472.1,200.4z"/>
		<path class="st2" d="M491.1,202.4l-2.5-4.2c-0.2,0-0.4,0-0.6,0h-3.3v4.2h-2.3v-13.8h5.6c3.5,0,5.6,1.7,5.6,4.7
			c0,2.2-1,3.8-2.9,4.5l3.1,4.6H491.1z M488,196.2c2.1,0,3.4-0.9,3.4-2.8c0-1.8-1.2-2.7-3.4-2.7h-3.3v5.5H488z"/>
		<path class="st2" d="M507.1,188.6v2.1h-4.4v11.7h-2.3v-11.7H496v-2.1H507.1z"/>
		<path class="st2" d="M515.7,197.8v4.6h-2.3v-4.5l-5.1-9.3h2.3l3.9,6.7l3.9-6.7h2.4L515.7,197.8z"/>
		<path class="st2" d="M531.5,199.3h-7l-1.3,3.1h-2.4l6.1-13.8h2.4l6,13.8h-2.5L531.5,199.3z M530.6,197.2l-2.6-6.1l-2.6,6.1H530.6z
			"/>
		<path class="st2" d="M546.9,202.4l-2.5-4.2c-0.2,0-0.4,0-0.6,0h-3.3v4.2h-2.3v-13.8h5.6c3.5,0,5.6,1.7,5.6,4.7
			c0,2.2-1,3.8-2.9,4.5l3.1,4.6H546.9z M543.7,196.2c2.1,0,3.4-0.9,3.4-2.8c0-1.8-1.2-2.7-3.4-2.7h-3.3v5.5H543.7z"/>
		<path class="st2" d="M566.2,195.5c0,4-3,6.9-7.2,6.9h-5.6v-13.8h5.7C563.2,188.6,566.2,191.5,566.2,195.5z M563.8,195.5
			c0-2.8-2.1-4.8-4.8-4.8h-3.3v9.6h3.4C561.8,200.3,563.8,198.3,563.8,195.5z"/>
	</g>
	<g>
		<path class="st2" d="M781.3,199.3h-7l-1.3,3.1h-2.4l6.1-13.8h2.4l6,13.8h-2.5L781.3,199.3z M780.4,197.2l-2.6-6.1l-2.6,6.1H780.4z
			"/>
		<path class="st2" d="M796.7,202.4l-2.5-4.2c-0.2,0-0.4,0-0.6,0h-3.3v4.2h-2.3v-13.8h5.6c3.5,0,5.6,1.7,5.6,4.7
			c0,2.2-1,3.8-2.9,4.5l3.1,4.6H796.7z M793.5,196.2c2.1,0,3.4-0.9,3.4-2.8c0-1.8-1.2-2.7-3.4-2.7h-3.3v5.5H793.5z"/>
		<path class="st2" d="M809.3,190.6c-2.8,0-4.9,2.1-4.9,4.8c0,2.7,2.2,4.9,4.9,4.9c1.4,0,2.8-0.6,3.8-1.6l1.4,1.5
			c-1.4,1.4-3.4,2.3-5.3,2.3c-4,0-7.2-3.1-7.2-7c0-3.9,3.2-6.9,7.3-6.9c2,0,3.9,0.8,5.2,2.1l-1.4,1.7
			C812.2,191.3,810.7,190.6,809.3,190.6z"/>
		<path class="st2" d="M831,190.6c-2.8,0-4.9,2.1-4.9,4.8c0,2.7,2.2,4.9,4.9,4.9c1.4,0,2.8-0.6,3.8-1.6l1.4,1.5
			c-1.4,1.4-3.4,2.3-5.3,2.3c-4,0-7.2-3.1-7.2-7c0-3.9,3.2-6.9,7.3-6.9c2,0,3.9,0.8,5.2,2.1l-1.4,1.7
			C833.8,191.3,832.4,190.6,831,190.6z"/>
		<path class="st2" d="M841.9,188.6v13.8h-2.3v-13.8H841.9z"/>
		<path class="st2" d="M848.8,188.6l7.4,9.9v-9.9h2.3v13.8h-2.3l-7.4-9.9v9.9h-2.3v-13.8H848.8z"/>
		<path class="st2" d="M872.9,188.6v2.1h-7.5v3.7h6.7v2.1h-6.7v3.8h7.8v2.1h-10.1v-13.8H872.9z"/>
		<path class="st2" d="M879.8,188.6l4.6,9.2l4.5-9.2h2.7v13.8h-2.1l0-10.3l-4.4,8.9h-1.5l-4.4-8.9v10.3H877v-13.8H879.8z"/>
		<path class="st2" d="M905.1,199.3h-7l-1.3,3.1h-2.4l6.1-13.8h2.4l6,13.8h-2.5L905.1,199.3z M904.2,197.2l-2.6-6.1l-2.6,6.1H904.2z
			"/>
	</g>
	<g>
		<path class="st2" d="M124,195.6h2v5.1c-1.4,1.1-3.5,1.8-5.4,1.8c-4.1,0-7.3-3.1-7.3-7c0-3.9,3.2-7,7.4-7c2,0,3.9,0.7,5.3,1.9
			l-1.3,1.7c-1.1-1-2.5-1.6-4-1.6c-2.8,0-5,2.1-5,4.9c0,2.8,2.2,4.9,5,4.9c1,0,2.2-0.4,3.2-0.9V195.6z"/>
		<path class="st2" d="M139.2,199.3h-7l-1.3,3.1h-2.4l6.1-13.8h2.4l6,13.8h-2.5L139.2,199.3z M138.3,197.2l-2.6-6.1l-2.6,6.1H138.3z
			"/>
		<path class="st2" d="M148.1,188.6v11.7h6v2.1h-8.3v-13.8H148.1z"/>
		<path class="st2" d="M159.6,188.6v11.7h6v2.1h-8.3v-13.8H159.6z"/>
		<path class="st2" d="M178.7,188.6v2.1h-7.5v3.7h6.7v2.1h-6.7v3.8h7.8v2.1h-10.1v-13.8H178.7z"/>
		<path class="st2" d="M191.5,202.4l-2.5-4.2c-0.2,0-0.4,0-0.6,0h-3.3v4.2h-2.3v-13.8h5.6c3.5,0,5.6,1.7,5.6,4.7
			c0,2.2-1,3.8-2.9,4.5l3.1,4.6H191.5z M188.3,196.2c2.1,0,3.4-0.9,3.4-2.8c0-1.8-1.2-2.7-3.4-2.7h-3.3v5.5H188.3z"/>
		<path class="st2" d="M203.5,197.8v4.6h-2.3v-4.5l-5.1-9.3h2.3l3.9,6.7l3.9-6.7h2.4L203.5,197.8z"/>
	</g>
	<g>
		<path class="st2" d="M791.6,483.5v2.1h-4.4v11.7h-2.3v-11.7h-4.4v-2.1H791.6z"/>
		<path class="st2" d="M796.9,483.5v6h7.3v-6h2.3v13.8h-2.3v-5.7h-7.3v5.7h-2.3v-13.8H796.9z"/>
		<path class="st2" d="M821,483.5v2.1h-7.5v3.7h6.7v2.1h-6.7v3.8h7.8v2.1h-10.1v-13.8H821z"/>
		<path class="st2" d="M834,494.2h-7l-1.3,3.1h-2.4l6.1-13.8h2.4l6,13.8h-2.5L834,494.2z M833.1,492.1l-2.6-6.1l-2.6,6.1H833.1z"/>
		<path class="st2" d="M848.6,483.5v2.1h-4.4v11.7h-2.3v-11.7h-4.4v-2.1H848.6z"/>
		<path class="st2" d="M860.4,497.3l-2.5-4.2c-0.2,0-0.4,0-0.6,0H854v4.2h-2.3v-13.8h5.6c3.5,0,5.6,1.7,5.6,4.7c0,2.2-1,3.8-2.9,4.5
			l3.1,4.6H860.4z M857.2,491.1c2.1,0,3.4-0.9,3.4-2.8c0-1.8-1.2-2.7-3.4-2.7H854v5.5H857.2z"/>
		<path class="st2" d="M876.7,483.5v2.1h-7.5v3.7h6.7v2.1h-6.7v3.8h7.8v2.1h-10.1v-13.8H876.7z"/>
		<path class="st2" d="M890.2,483.5v2.1h-4.4v11.7h-2.3v-11.7h-4.4v-2.1H890.2z"/>
		<path class="st2" d="M902.6,483.5v2.1h-4.4v11.7h-2.3v-11.7h-4.4v-2.1H902.6z"/>
		<path class="st2" d="M915.4,483.5v2.1h-7.5v3.7h6.7v2.1h-6.7v3.8h7.8v2.1h-10.1v-13.8H915.4z"/>
	</g>
	<g>
		<path class="st2" d="M239.4,556.9v2.1H235v11.7h-2.3V559h-4.4v-2.1H239.4z"/>
		<path class="st2" d="M244.7,556.9v6h7.3v-6h2.3v13.8H252V565h-7.3v5.7h-2.3v-13.8H244.7z"/>
		<path class="st2" d="M268.8,556.9v2.1h-7.5v3.7h6.7v2.1h-6.7v3.8h7.8v2.1h-10.1v-13.8H268.8z"/>
		<path class="st2" d="M289,556.9l0,2.1h-6.9v4h6.3v2.1h-6.3v5.7h-2.3v-13.8H289z"/>
		<path class="st2" d="M300.8,570.7l-2.5-4.2c-0.2,0-0.4,0-0.6,0h-3.3v4.2h-2.3v-13.8h5.6c3.5,0,5.6,1.7,5.6,4.7
			c0,2.2-1,3.8-2.9,4.5l3.1,4.6H300.8z M297.7,564.5c2.1,0,3.4-0.9,3.4-2.8c0-1.8-1.2-2.7-3.4-2.7h-3.3v5.5H297.7z"/>
		<path class="st2" d="M320.8,563.8c0,3.9-3.2,7-7.3,7s-7.3-3.1-7.3-7c0-4,3.2-7,7.3-7S320.8,559.9,320.8,563.8z M308.5,563.8
			c0,2.7,2.3,4.9,5,4.9c2.7,0,4.9-2.2,4.9-4.9c0-2.7-2.2-4.9-4.9-4.9C310.8,558.9,308.5,561.1,308.5,563.8z"/>
		<path class="st2" d="M326.6,556.9l7.4,9.9v-9.9h2.3v13.8h-2.3l-7.4-9.9v9.9h-2.3v-13.8H326.6z"/>
		<path class="st2" d="M350.3,556.9v2.1h-4.4v11.7h-2.3V559h-4.4v-2.1H350.3z"/>
		<path class="st2" d="M368.9,570.7l-2.5-4.2c-0.2,0-0.4,0-0.6,0h-3.3v4.2h-2.3v-13.8h5.6c3.5,0,5.6,1.7,5.6,4.7
			c0,2.2-1,3.8-2.9,4.5l3.1,4.6H368.9z M365.8,564.5c2.1,0,3.4-0.9,3.4-2.8c0-1.8-1.2-2.7-3.4-2.7h-3.3v5.5H365.8z"/>
		<path class="st2" d="M388.9,563.8c0,3.9-3.2,7-7.3,7c-4.1,0-7.3-3.1-7.3-7c0-4,3.2-7,7.3-7C385.7,556.8,388.9,559.9,388.9,563.8z
			 M376.6,563.8c0,2.7,2.3,4.9,5,4.9c2.7,0,4.9-2.2,4.9-4.9c0-2.7-2.2-4.9-4.9-4.9C378.9,558.9,376.6,561.1,376.6,563.8z"/>
		<path class="st2" d="M405.3,563.8c0,3.9-3.2,7-7.3,7c-4.1,0-7.3-3.1-7.3-7c0-4,3.2-7,7.3-7C402.1,556.8,405.3,559.9,405.3,563.8z
			 M393,563.8c0,2.7,2.3,4.9,5,4.9c2.7,0,4.9-2.2,4.9-4.9c0-2.7-2.2-4.9-4.9-4.9C395.3,558.9,393,561.1,393,563.8z"/>
		<path class="st2" d="M411.5,556.9l4.6,9.2l4.5-9.2h2.7v13.8h-2.1l0-10.3l-4.4,8.9h-1.5l-4.4-8.9v10.3h-2.2v-13.8H411.5z"/>
	</g>
	<g>
		<path class="st2" d="M317.9,412.1c-2.8,0-4.9,2.1-4.9,4.8s2.2,4.9,4.9,4.9c1.4,0,2.8-0.6,3.8-1.6l1.4,1.5
			c-1.4,1.4-3.4,2.3-5.3,2.3c-4,0-7.2-3.1-7.2-7c0-3.9,3.2-6.9,7.3-6.9c2,0,3.9,0.8,5.2,2.1l-1.4,1.7
			C320.7,412.8,319.3,412.1,317.9,412.1z"/>
		<path class="st2" d="M335.3,420.8h-7l-1.3,3.1h-2.4l6.1-13.8h2.4l6,13.8h-2.5L335.3,420.8z M334.4,418.7l-2.6-6.1l-2.6,6.1H334.4z
			"/>
		<path class="st2" d="M351.2,410.1l0,2.1h-6.9v4h6.3v2.1h-6.3v5.7h-2.3v-13.8H351.2z"/>
		<path class="st2" d="M364.1,410.1v2.1h-7.5v3.7h6.7v2.1h-6.7v3.8h7.8v2.1h-10.1v-13.8H364.1z"/>
	</g>
	<g>
		<path class="st1" d="M61,450.7v11.7h6v2.1h-8.3v-13.8H61z"/>
		<path class="st1" d="M72.5,450.7v13.8h-2.3v-13.8H72.5z"/>
		<path class="st1" d="M87.7,454.1c0,1.5-0.9,2.7-2.4,3.1c1.9,0.3,3,1.6,3,3.5c0,2.4-1.9,3.8-5,3.8h-6.1v-13.8h6
			C85.9,450.7,87.7,452,87.7,454.1z M85.3,454.5c0-1.1-0.9-1.8-2.4-1.8h-3.5v3.6H83C84.4,456.4,85.3,455.7,85.3,454.5z M85.9,460.4
			c0-1.2-1.1-2-2.9-2h-3.5v3.9H83C84.8,462.4,85.9,461.7,85.9,460.4z"/>
		<path class="st1" d="M100.7,464.5l-2.5-4.2c-0.2,0-0.4,0-0.6,0h-3.3v4.2H92v-13.8h5.6c3.5,0,5.6,1.7,5.6,4.7c0,2.2-1,3.8-2.9,4.5
			l3.1,4.6H100.7z M97.6,458.2c2.1,0,3.4-0.9,3.4-2.8c0-1.8-1.2-2.7-3.4-2.7h-3.3v5.5H97.6z"/>
		<path class="st1" d="M116.1,461.3h-7l-1.3,3.1h-2.4l6.1-13.8h2.4l6,13.8h-2.5L116.1,461.3z M115.3,459.3l-2.6-6.1l-2.6,6.1H115.3z
			"/>
		<path class="st1" d="M131.5,464.5l-2.5-4.2c-0.2,0-0.4,0-0.6,0h-3.3v4.2h-2.3v-13.8h5.6c3.5,0,5.6,1.7,5.6,4.7
			c0,2.2-1,3.8-2.9,4.5l3.1,4.6H131.5z M128.4,458.2c2.1,0,3.4-0.9,3.4-2.8c0-1.8-1.2-2.7-3.4-2.7h-3.3v5.5H128.4z"/>
		<path class="st1" d="M143.5,459.9v4.6h-2.3v-4.5l-5.1-9.3h2.3l3.9,6.7l3.9-6.7h2.4L143.5,459.9z"/>
	</g>
	<g>
		<path class="st2" d="M475.9,483.5l0,2.1h-6.9v4h6.3v2.1h-6.3v5.7h-2.3v-13.8H475.9z"/>
		<path class="st2" d="M492.4,490.4c0,3.9-3.2,7-7.3,7s-7.3-3.1-7.3-7c0-4,3.2-7,7.3-7S492.4,486.5,492.4,490.4z M480.2,490.4
			c0,2.7,2.3,4.9,5,4.9c2.7,0,4.9-2.2,4.9-4.9s-2.2-4.9-4.9-4.9C482.4,485.5,480.2,487.7,480.2,490.4z"/>
		<path class="st2" d="M501.5,492.7v4.6h-2.3v-4.5l-5.1-9.3h2.3l3.9,6.7l3.9-6.7h2.4L501.5,492.7z"/>
		<path class="st2" d="M519.2,483.5v2.1h-7.5v3.7h6.7v2.1h-6.7v3.8h7.8v2.1h-10.1v-13.8H519.2z"/>
		<path class="st2" d="M532.1,497.3l-2.5-4.2c-0.2,0-0.4,0-0.6,0h-3.3v4.2h-2.3v-13.8h5.6c3.5,0,5.6,1.7,5.6,4.7
			c0,2.2-1,3.8-2.9,4.5l3.1,4.6H532.1z M528.9,491.1c2.1,0,3.4-0.9,3.4-2.8c0-1.8-1.2-2.7-3.4-2.7h-3.3v5.5H528.9z"/>
	</g>
	<g>
		<path class="st1" d="M595.6,568.7c0,3.9-3.2,7-7.3,7s-7.3-3.1-7.3-7c0-4,3.2-7,7.3-7S595.6,564.8,595.6,568.7z M583.3,568.7
			c0,2.7,2.3,4.9,5,4.9c2.7,0,4.9-2.2,4.9-4.9c0-2.7-2.2-4.9-4.9-4.9C585.6,563.9,583.3,566,583.3,568.7z"/>
		<path class="st1" d="M608.3,561.8l0,2.1h-6.9v4h6.3v2.1h-6.3v5.7H599v-13.8H608.3z"/>
		<path class="st1" d="M620.6,561.8l0,2.1h-6.9v4h6.3v2.1h-6.3v5.7h-2.3v-13.8H620.6z"/>
		<path class="st1" d="M626,561.8v13.8h-2.3v-13.8H626z"/>
		<path class="st1" d="M636.8,563.8c-2.8,0-4.9,2.1-4.9,4.8c0,2.7,2.2,4.9,4.9,4.9c1.4,0,2.8-0.6,3.8-1.6l1.4,1.5
			c-1.4,1.4-3.4,2.3-5.3,2.3c-4,0-7.2-3.1-7.2-7c0-3.9,3.2-6.9,7.3-6.9c2,0,3.9,0.8,5.2,2.1l-1.4,1.7
			C639.6,564.5,638.2,563.8,636.8,563.8z"/>
		<path class="st1" d="M655.2,561.8v2.1h-7.5v3.7h6.7v2.1h-6.7v3.8h7.8v2.1h-10.1v-13.8H655.2z"/>
		<path class="st1" d="M663.6,563.9c-1.4,0-2.2,0.5-2.2,1.4c0,3,7.4,1.4,7.4,6.4c0,2.5-2.2,4-5.2,4c-2.2,0-4.2-0.9-5.6-2.2l1-2
			c1.4,1.3,3.2,2,4.7,2c1.6,0,2.6-0.6,2.6-1.7c0-3.1-7.4-1.4-7.4-6.3c0-2.4,2-3.8,5-3.8c1.8,0,3.5,0.6,4.8,1.4l-1,2
			C666.2,564.3,664.7,563.9,663.6,563.9z"/>
	</g>
	<rect x="133.2" y="597.4" class="st2" width="121.1" height="4.9"/>
	<rect x="626.2" y="597.4" class="st2" width="121.1" height="4.9"/>
	<rect x="310.6" y="207.8" class="st0" width="9.7" height="46"/>
	<rect x="679.1" y="319.4" class="st0" width="10.9" height="46"/>
	<rect x="164" y="464.6" class="st0" width="8.3" height="46"/>
	<rect x="726.4" y="465.2" class="st0" width="8.3" height="46"/>
	<rect x="326.7" y="369.3" class="st0" width="46" height="9.5"/>
	<rect x="316.5" y="516.2" class="st0" width="46" height="8.6"/>
	<rect x="303.9" y="452.3" class="st0" width="46" height="7.7"/>
	<rect x="568.2" y="516.2" class="st0" width="46" height="8.6"/>
	<rect x="589.7" y="452.4" class="st0" width="28.8" height="12.7"/>
	<rect x="643.2" y="452.4" class="st0" width="28.8" height="6.4"/>
	<g>
		
			<rect x="143.1" y="473.3" transform="matrix(0.7071 -0.7071 0.7071 0.7071 -301.9723 244.2821)" class="st0" width="1.6" height="26.7"/>
		
			<rect x="130.5" y="486.1" transform="matrix(0.7071 -0.7071 0.7071 0.7071 -302.1424 244.3526)" class="st0" width="26.7" height="1.6"/>
	</g>
	<g>
		
			<rect x="590.9" y="529" transform="matrix(0.7071 -0.7071 0.7071 0.7071 -210.1985 577.2921)" class="st0" width="1.6" height="26.7"/>
		
			<rect x="578.4" y="541.6" transform="matrix(0.7071 -0.7071 0.7071 0.7071 -210.1985 577.2921)" class="st0" width="26.7" height="1.6"/>
	</g>
	<g>
		
			<ellipse transform="matrix(0.2268 -0.9739 0.9739 0.2268 117.5855 938.7225)" class="st3" cx="650" cy="395.3" rx="4.8" ry="4.8"/>
		<path class="st3" d="M649.7,425.3h0.7V438c0,1.2,1,2.1,2.1,2.1c1.2,0,2.1-1,2.1-2.1v-12.8h4.6l-3.6-18.5c0.2,0.4,0.4,0.8,0.6,1.2
			c1.2,2.5,2.5,6.6,3.8,13.4c0.1,0.7,0.7,1.1,1.4,1.1c0.1,0,0.2,0,0.3,0c0.8-0.1,1.3-0.9,1.1-1.6c-1.7-9.1-3.5-13.8-5.2-16.3
			c-0.8-1.3-1.6-2-2.2-2.4c-0.2-0.2-0.5-0.3-0.7-0.3l0,0c0,0-1.6-0.8-4.8-0.8c-3.2,0-4.8,0.8-4.8,0.8l0,0c-0.2,0.1-0.4,0.2-0.7,0.3
			c-1,0.6-2.2,1.9-3.5,4.7c-1.3,2.8-2.7,7.1-3.9,13.9c-0.1,0.8,0.4,1.5,1.1,1.6c0.1,0,0.2,0,0.3,0c0.7,0,1.2-0.5,1.4-1.1
			c1.5-8.1,3.1-12.4,4.4-14.7l-3.6,18.5h4.6V438c0,1.2,1,2.1,2.1,2.1c1.2,0,2.1-1,2.1-2.1L649.7,425.3L649.7,425.3z"/>
	</g>
	<g>
		
			<ellipse transform="matrix(0.2268 -0.9739 0.9739 0.2268 78.9265 891.2076)" class="st3" cx="600.8" cy="395.9" rx="4.8" ry="4.8"/>
		<path class="st3" d="M592.5,423.5c0.1,0,0.2,0,0.4,0c0.9-0.2,1.5-1.1,1.3-2c-0.8-3.7-1.1-6.6-1.1-8.8c0-1.9,0.2-3.3,0.5-4.3
			c0.4-1.2,0.9-1.8,1.3-2.2v8.3v4.1v18.4c0,1.5,1.2,2.7,2.7,2.7c1.5,0,2.7-1.2,2.7-2.7v-16.8h1v16.8c0,1.5,1.2,2.7,2.7,2.7
			c1.5,0,2.7-1.2,2.7-2.7v-18.4v-4.1v-8.3c0.3,0.2,0.5,0.5,0.8,1c0.5,0.9,1.1,2.6,1.1,5.5c0,2.2-0.3,5.1-1.1,8.8
			c-0.2,0.9,0.4,1.8,1.3,2c0.1,0,0.2,0,0.4,0c0.8,0,1.5-0.6,1.7-1.4c0.8-3.9,1.2-7,1.2-9.5c0-2.2-0.3-3.9-0.7-5.3
			c-0.7-2.1-1.8-3.5-3-4.2c-1.2-0.7-2.3-0.9-2.9-0.9c0,0-0.1,0-0.1,0c-0.1,0-0.1,0-0.2,0h-8.3c-0.1,0-0.1,0-0.2,0c0,0-0.1,0-0.1,0
			c-0.4,0-1,0.1-1.8,0.3c-1.1,0.4-2.4,1.3-3.4,2.9c-0.9,1.6-1.5,3.9-1.5,7.2c0,2.5,0.3,5.6,1.2,9.5
			C591,422.9,591.8,423.5,592.5,423.5z"/>
	</g>
</g>
</svg>
