<?xml version="1.0" encoding="utf-8"?>
<!-- Generator: Adobe Illustrator 21.0.2, SVG Export Plug-In . SVG Version: 6.00 Build 0)  -->
<svg version="1.1" id="Layer_1" xmlns="http://www.w3.org/2000/svg" xmlns:xlink="http://www.w3.org/1999/xlink" x="0px" y="0px"
	 viewBox="0 0 300 300" style="enable-background:new 0 0 300 300;" xml:space="preserve">
<style type="text/css">
	.st0{fill:#FFFFFF;}
</style>
<g>
	<g>
		<path class="st0" d="M296.6,296.7h-99.8l5.5-9.4c3.1-5.2,4.7-11.1,4.7-17.1c0-18.6-15.1-33.7-33.7-33.7s-33.7,15.1-33.7,33.7
			c0,6,1.6,11.9,4.7,17.1l5.5,9.4H62.5v-78.6c-4.2,1.2-8.6,1.9-12.9,1.9c-25.4,0-46.1-20.7-46.1-46.1s20.7-46.1,46.1-46.1
			c4.4,0,8.8,0.6,12.9,1.9v-67h66.6c-1.3-4.2-1.9-8.6-1.9-13.1c0-25.4,20.7-46.1,46.1-46.1s46.1,20.7,46.1,46.1
			c0,4.4-0.6,8.9-1.9,13.1h79v88l-9.4-5.6c-5.3-3.2-11.3-4.8-17.3-4.8c-18.6,0-33.7,15.1-33.7,33.7s15.1,33.7,33.7,33.7
			c6.1,0,12.1-1.7,17.3-4.8l9.4-5.6V296.7z M217.3,284.3h67v-66.7c-4.6,1.5-9.5,2.3-14.3,2.3c-25.4,0-46.1-20.7-46.1-46.1
			s20.7-46.1,46.1-46.1c4.9,0,9.7,0.8,14.3,2.3v-55h-86.4l5.1-9.2c2.7-5,4.2-10.6,4.2-16.3c0-18.6-15.1-33.7-33.7-33.7
			s-33.7,15.1-33.7,33.7c0,5.7,1.5,11.3,4.2,16.3l5.1,9.2h-74v74.2l-9.2-5c-4.9-2.7-10.5-4.1-16.2-4.1c-18.6,0-33.7,15.1-33.7,33.7
			s15.1,33.7,33.7,33.7c5.6,0,11.2-1.4,16.2-4.1l9.2-5v85.9h54.6c-1.5-4.5-2.2-9.3-2.2-14.1c0-25.4,20.7-46.1,46.1-46.1
			s46.1,20.7,46.1,46.1C219.5,275,218.7,279.7,217.3,284.3z"/>
	</g>
	<path class="st0" d="M219.5,270.2h-12.4c0-18.6-15.1-33.7-33.7-33.7s-33.7,15.1-33.7,33.7h-12.4c0-25.4,20.7-46.1,46.1-46.1
		S219.5,244.7,219.5,270.2z"/>
</g>
</svg>
