<?xml version="1.0" encoding="utf-8"?>
<!-- Generator: Adobe Illustrator 21.0.2, SVG Export Plug-In . SVG Version: 6.00 Build 0)  -->
<svg version="1.1" id="Layer_1" xmlns="http://www.w3.org/2000/svg" xmlns:xlink="http://www.w3.org/1999/xlink" x="0px" y="0px"
	 viewBox="0 0 300 300" style="enable-background:new 0 0 300 300;" xml:space="preserve">
<style type="text/css">
	.st0{fill:#FFFFFF;}
</style>
<path class="st0" d="M116.6,224.3c-59,0-107-48-107-107c0-59,48-107,107-107c59,0,107,48,107,107
	C223.6,176.3,175.6,224.3,116.6,224.3z M116.6,30.3c-48,0-87,39-87,87c0,48,39,87,87,87c48,0,87-39,87-87
	C203.6,69.3,164.6,30.3,116.6,30.3z"/>
<path class="st0" d="M178.2,194.9c30.3,30.3,60.5,60.5,90.8,90.8c7.9,7.9,26.6-10.8,18.7-18.7c-30.3-30.3-60.5-60.5-90.8-90.8
	C189,168.3,170.3,187,178.2,194.9L178.2,194.9z"/>
</svg>
