<?xml version="1.0" encoding="utf-8"?>
<!-- Generator: Adobe Illustrator 21.0.2, SVG Export Plug-In . SVG Version: 6.00 Build 0)  -->
<svg version="1.1" id="Layer_1" xmlns="http://www.w3.org/2000/svg" xmlns:xlink="http://www.w3.org/1999/xlink" x="0px" y="0px"
	 viewBox="0 0 300 300" style="enable-background:new 0 0 300 300;" xml:space="preserve">
<style type="text/css">
	.st0{fill:#FFFFFF;}
	.st1{fill:none;stroke:#FFFFFF;stroke-width:4.0415;stroke-miterlimit:10;}
</style>
<g>
	<g>
		<path class="st0" d="M61.2,164.8v9.9H47.5v36h-12v-36H21.9v-9.9H61.2z"/>
		<path class="st0" d="M79.7,164.8v18.7h18.5v-18.7h12v45.9h-12v-17.6H79.7v17.6h-12v-45.9H79.7z"/>
		<path class="st0" d="M157,164.8v9.6h-24.2v8.6h21.9v9.5l-21.9,0.1v8.6h24.9v9.6h-36.9v-45.9H157z"/>
		<path class="st0" d="M183.5,174c-2.9,0-4.8,1-4.8,3.1c0,7.6,24.2,3.3,24.2,19.8c0,9.4-8.3,14.2-18.5,14.2
			c-7.7,0-15.7-2.8-21.2-7.3l4.7-9.4c4.7,4.1,11.9,6.9,16.6,6.9c3.5,0,5.8-1.3,5.8-3.7c0-7.8-24.2-3.1-24.2-19.3
			c0-8.6,7.3-14,18.3-14c6.7,0,13.6,2.1,18.3,5.2l-4.5,9.5C193.4,176.2,187.3,174,183.5,174z"/>
		<path class="st0" d="M246.8,164.8v9.6h-24.2v8.6h21.9v9.5l-21.9,0.1v8.6h24.9v9.6h-36.9v-45.9H246.8z"/>
		<path class="st0" d="M34.2,223l8.7,33.2l8.6-33.2h11.7l8.7,33.2l8.6-33.2h12.3l-15.1,45.9H65.4l-8.3-31l-8.5,31H36.3L21.3,223
			H34.2z"/>
		<path class="st0" d="M125.6,260.8h-19.9l-3.2,8.1H90.2l19.7-45.9h12.3l19.3,45.9h-12.8L125.6,260.8z M122,251.6l-6.3-16.4
			l-6.4,16.4H122z"/>
		<path class="st0" d="M159.2,223v35.7h19.5v10.2h-31.4V223H159.2z"/>
		<path class="st0" d="M197.8,223v35.7h19.5v10.2h-31.4V223H197.8z"/>
		<path class="st0" d="M241.1,232.2c-2.9,0-4.8,1-4.8,3.1c0,7.6,24.2,3.3,24.2,19.8c0,9.4-8.3,14.2-18.5,14.2
			c-7.7,0-15.7-2.8-21.2-7.3l4.7-9.4c4.7,4.1,11.9,6.9,16.6,6.9c3.5,0,5.8-1.3,5.8-3.7c0-7.8-24.2-3.1-24.2-19.3
			c0-8.6,7.3-14,18.3-14c6.7,0,13.6,2.1,18.3,5.2l-4.5,9.5C251.1,234.4,244.9,232.2,241.1,232.2z"/>
	</g>
	<polyline class="st1" points="297,3 297,297 3,297 3,3 	"/>
	<line class="st1" x1="47.6" y1="8.8" x2="252.4" y2="8.8"/>
</g>
</svg>
