<?xml version="1.0" encoding="utf-8"?>
<!-- Generator: Adobe Illustrator 21.0.2, SVG Export Plug-In . SVG Version: 6.00 Build 0)  -->
<svg version="1.1" id="Layer_1" xmlns="http://www.w3.org/2000/svg" xmlns:xlink="http://www.w3.org/1999/xlink" x="0px" y="0px"
	 viewBox="0 0 300 300" style="enable-background:new 0 0 300 300;" xml:space="preserve">
<style type="text/css">
	.st0{fill:#FFFFFF;}
</style>
<g>
	<g>
		<path class="st0" d="M64.7,161.4v9.5H51.5v34.6H40v-34.6H26.9v-9.5H64.7z"/>
		<path class="st0" d="M82.5,161.4v18h17.8v-18h11.5v44.1h-11.5v-16.9H82.5v16.9H71v-44.1H82.5z"/>
		<path class="st0" d="M156.7,161.4v9.2h-23.3v8.2h21v9.1l-21,0.1v8.3h23.9v9.2h-35.4v-44.1H156.7z"/>
		<path class="st0" d="M182.2,170.3c-2.8,0-4.6,1-4.6,3c0,7.3,23.2,3.1,23.2,19c0,9-7.9,13.6-17.7,13.6c-7.4,0-15-2.7-20.3-7l4.5-9
			c4.5,3.9,11.4,6.7,16,6.7c3.4,0,5.5-1.3,5.5-3.6c0-7.5-23.2-3-23.2-18.6c0-8.2,7-13.5,17.6-13.5c6.5,0,13,2,17.6,5l-4.3,9.1
			C191.7,172.4,185.8,170.3,182.2,170.3z"/>
		<path class="st0" d="M243,161.4v9.2h-23.3v8.2h21v9.1l-21,0.1v8.3h23.9v9.2h-35.4v-44.1H243z"/>
		<path class="st0" d="M38.8,217.3l8.4,31.9l8.3-31.9h11.3l8.4,31.9l8.3-31.9h11.8l-14.5,44.1H68.8l-7.9-29.8l-8.2,29.8H40.8
			l-14.5-44.1H38.8z"/>
		<path class="st0" d="M126.5,253.6h-19.1l-3.1,7.8H92.6l18.9-44.1h11.8l18.5,44.1h-12.3L126.5,253.6z M123.1,244.8l-6-15.7
			l-6.2,15.7H123.1z"/>
		<path class="st0" d="M158.9,217.3v34.3h18.7v9.8h-30.2v-44.1H158.9z"/>
		<path class="st0" d="M195.9,217.3v34.3h18.7v9.8h-30.2v-44.1H195.9z"/>
		<path class="st0" d="M237.5,226.2c-2.8,0-4.6,1-4.6,3c0,7.3,23.2,3.1,23.2,19c0,9-7.9,13.6-17.7,13.6c-7.4,0-15-2.7-20.3-7l4.5-9
			c4.5,3.9,11.4,6.7,16,6.7c3.4,0,5.5-1.3,5.5-3.6c0-7.5-23.2-3-23.2-18.6c0-8.2,7-13.5,17.6-13.5c6.5,0,13,2,17.6,5l-4.3,9.1
			C247.1,228.3,241.2,226.2,237.5,226.2z"/>
	</g>
	<polygon class="st0" points="296.8,294 3.2,294 3.2,6 14.4,6 14.4,282.8 285.6,282.8 285.6,6 296.8,6 	"/>
	<rect x="51.7" y="6" class="st0" width="196.7" height="11.2"/>
</g>
</svg>
