<?xml version="1.0" encoding="utf-8"?>
<!-- Generator: Adobe Illustrator 21.0.2, SVG Export Plug-In . SVG Version: 6.00 Build 0)  -->
<svg version="1.1" id="Layer_1" xmlns="http://www.w3.org/2000/svg" xmlns:xlink="http://www.w3.org/1999/xlink" x="0px" y="0px"
	 viewBox="0 0 300 300" style="enable-background:new 0 0 300 300;" xml:space="preserve">
<style type="text/css">
	.st0{fill:#FFFFFF;}
</style>
<g transform="translate(0,-952.36218)">
	<path class="st0" d="M23.3,975.7c-11,0-20,9-20,20V1149c0,11,9,20,20,20h120v20h-50c-0.2,0-0.4,0-0.6,0c-3.4,0.3-6.1,3.2-6,6.7
		v26.7c0,3.7,3,6.7,6.7,6.7h113.3c3.7,0,6.7-3,6.7-6.7v-26.7c0-3.7-3-6.7-6.7-6.7h-50v-20h120c11,0,20-9,20-20V995.7
		c0-11-9-20-20-20H23.3z M23.3,989h253.3c3.8,0,6.7,2.9,6.7,6.7V1149c0,3.8-2.9,6.7-6.7,6.7H23.3c-3.8,0-6.7-2.9-6.7-6.7V995.7
		C16.7,991.9,19.5,989,23.3,989z M100,1202.4h100v13.3H100V1202.4z"/>
</g>
<g>
	<g>
		<g>
			<path class="st0" d="M97.5,79.7c27.6,27.6,55.2,55.2,82.8,82.8c3.9,3.9,7.7,7.7,11.6,11.6c6.8,6.8,17.4-3.8,10.6-10.6
				c-27.6-27.6-55.2-55.2-82.8-82.8c-3.9-3.9-7.7-7.7-11.6-11.6C101.2,62.3,90.6,72.9,97.5,79.7L97.5,79.7z"/>
		</g>
	</g>
	<g>
		<g>
			<path class="st0" d="M191.9,69.1c-27.6,27.6-55.2,55.2-82.8,82.8c-3.9,3.9-7.7,7.7-11.6,11.6c-6.8,6.8,3.8,17.4,10.6,10.6
				c27.6-27.6,55.2-55.2,82.8-82.8c3.9-3.9,7.7-7.7,11.6-11.6C209.4,72.9,198.8,62.3,191.9,69.1L191.9,69.1z"/>
		</g>
	</g>
</g>
</svg>
